<svg width="51" height="51" viewBox="0 0 51 51" fill="none" xmlns="http://www.w3.org/2000/svg">
<circle cx="25.5176" cy="25.8555" r="24" stroke="white" stroke-width="2"/>
<path d="M25.5123 14.469C29.2215 14.469 29.6569 14.4855 31.123 14.5517C32.4788 14.6123 33.2118 14.8384 33.7023 15.0313C34.3527 15.2849 34.8156 15.5825 35.3006 16.0677C35.7857 16.5528 36.0888 17.0158 36.3368 17.6663C36.5242 18.1569 36.7557 18.8901 36.8163 20.2462C36.8824 21.7125 36.899 22.148 36.899 25.858C36.899 29.5679 36.8824 30.0034 36.8163 31.4697C36.7557 32.8258 36.5297 33.559 36.3368 34.0496C36.0833 34.7001 35.7857 35.1632 35.3006 35.6483C34.8156 36.1334 34.3527 36.4366 33.7023 36.6846C33.2118 36.872 32.4788 37.1036 31.123 37.1642C29.6569 37.2304 29.2215 37.2469 25.5123 37.2469C21.8031 37.2469 21.3677 37.2304 19.9016 37.1642C18.5458 37.1036 17.8128 36.8776 17.3222 36.6846C16.6719 36.431 16.2089 36.1334 15.7239 35.6483C15.2389 35.1632 14.9358 34.7001 14.6878 34.0496C14.5004 33.559 14.2689 32.8258 14.2083 31.4697C14.1421 30.0034 14.1256 29.5679 14.1256 25.858C14.1256 22.148 14.1421 21.7125 14.2083 20.2462C14.2689 18.8901 14.4949 18.1569 14.6878 17.6663C14.9413 17.0158 15.2389 16.5528 15.7239 16.0677C16.2089 15.5825 16.6719 15.2794 17.3222 15.0313C17.8128 14.8439 18.5458 14.6123 19.9016 14.5517C21.3677 14.48 21.8086 14.469 25.5123 14.469ZM25.5123 11.9663C21.7424 11.9663 21.2685 11.9828 19.7859 12.049C18.3088 12.1151 17.3002 12.3522 16.4184 12.694C15.5035 13.0468 14.7319 13.5264 13.9603 14.2981C13.1887 15.0699 12.7147 15.8471 12.3564 16.7567C12.0147 17.6387 11.7777 18.6475 11.7116 20.1304C11.6454 21.6078 11.6289 22.0819 11.6289 25.8524C11.6289 29.623 11.6454 30.0971 11.7116 31.58C11.7777 33.0574 12.0147 34.0662 12.3564 34.9537C12.7092 35.8688 13.1887 36.6405 13.9603 37.4123C14.7319 38.184 15.509 38.6581 16.4184 39.0164C17.3002 39.3582 18.3088 39.5952 19.7914 39.6614C21.274 39.7276 21.7424 39.7441 25.5178 39.7441C29.2931 39.7441 29.7616 39.7276 31.2442 39.6614C32.7213 39.5952 33.7299 39.3582 34.6172 39.0164C35.5321 38.6636 36.3037 38.184 37.0753 37.4123C37.8469 36.6405 38.3209 35.8632 38.6792 34.9537C39.0209 34.0717 39.2579 33.0629 39.324 31.58C39.3902 30.0971 39.4067 29.6285 39.4067 25.8524C39.4067 22.0763 39.3902 21.6078 39.324 20.1249C39.2579 18.6475 39.0209 17.6387 38.6792 16.7512C38.3264 15.8361 37.8469 15.0644 37.0753 14.2926C36.3037 13.5208 35.5266 13.0468 34.6172 12.6885C33.7354 12.3467 32.7268 12.1096 31.2442 12.0435C29.7561 11.9828 29.2821 11.9663 25.5123 11.9663Z" fill="white"/>
<path d="M25.5167 18.9106C21.6849 18.9106 18.5723 22.0179 18.5723 25.8551C18.5723 29.6922 21.6796 32.7995 25.5167 32.7995C29.3539 32.7995 32.4612 29.6922 32.4612 25.8551C32.4612 22.0179 29.3539 18.9106 25.5167 18.9106ZM25.5167 30.3577C23.0266 30.3577 21.0087 28.3398 21.0087 25.8497C21.0087 23.3596 23.0266 21.3417 25.5167 21.3417C28.0068 21.3417 30.0247 23.3596 30.0247 25.8497C30.0247 28.3398 28.0068 30.3577 25.5167 30.3577Z" fill="white"/>
<path d="M32.4612 18.9106C33.2282 18.9106 33.85 18.2888 33.85 17.5217C33.85 16.7546 33.2282 16.1328 32.4612 16.1328C31.6941 16.1328 31.0723 16.7546 31.0723 17.5217C31.0723 18.2888 31.6941 18.9106 32.4612 18.9106Z" fill="white"/>
</svg>
