<svg width="51" height="51" viewBox="0 0 51 51" fill="none" xmlns="http://www.w3.org/2000/svg">
<circle cx="25.5176" cy="25.8457" r="24" stroke="white" stroke-width="2"/>
<path d="M37.0349 11.9111H13.9477C12.6862 11.9111 11.584 12.8188 11.584 14.0655V37.204C11.584 38.4575 12.6862 39.5745 13.9477 39.5745H37.0281C38.2964 39.5745 39.2473 38.4501 39.2473 37.204V14.0655C39.2547 12.8188 38.2964 11.9111 37.0349 11.9111ZM20.159 34.9699H16.196V22.648H20.159V34.9699ZM18.3146 20.7745H18.2862C17.0179 20.7745 16.1966 19.8304 16.1966 18.6485C16.1966 17.445 17.0395 16.5231 18.3362 16.5231C19.6329 16.5231 20.4264 17.4382 20.4548 18.6485C20.4542 19.8304 19.6329 20.7745 18.3146 20.7745ZM34.6427 34.9699H30.6797V28.2325C30.6797 26.6184 30.103 25.5156 28.6692 25.5156C27.5738 25.5156 26.9254 26.2566 26.637 26.9784C26.529 27.2378 26.5 27.591 26.5 27.9516V34.9699H22.5369V22.648H26.5V24.3627C27.0767 23.5415 27.9776 22.3596 30.074 22.3596C32.6754 22.3596 34.6433 24.0744 34.6433 27.7713L34.6427 34.9699Z" fill="white"/>
</svg>
