<svg width="51" height="51" viewBox="0 0 51 51" fill="none" xmlns="http://www.w3.org/2000/svg">
<circle cx="25.5176" cy="25.8555" r="24" stroke="white" stroke-width="2"/>
<path fill-rule="evenodd" clip-rule="evenodd" d="M37.377 21.3109C37.1925 30.3007 31.8431 36.5544 23.7268 36.9452C20.4065 37.1407 18.0085 35.9681 15.7949 34.6001C18.1929 34.991 21.3288 34.0138 22.9889 32.4504C20.5909 32.2549 19.1152 30.8869 18.3774 28.7372C19.1152 28.9326 19.8531 28.7372 20.4065 28.7372C18.1929 27.9555 16.7172 26.5875 16.5328 23.4606C17.0862 23.8515 17.824 24.0469 18.5618 24.0469C16.9017 23.0698 15.7949 19.3566 17.0862 17.0115C19.4842 19.7475 22.4355 22.0926 27.2316 22.4835C25.9403 17.0115 32.9499 14.08 35.7168 17.7932C37.008 17.5978 37.9303 17.0115 38.8526 16.6206C38.4837 17.9886 37.7459 18.7703 36.8236 19.552C37.7459 19.3566 38.6682 19.1612 39.406 18.7703C39.2216 19.7475 38.2993 20.5292 37.377 21.3109Z" fill="white"/>
</svg>
