<svg width="50" height="50" viewBox="0 0 50 50" fill="none" xmlns="http://www.w3.org/2000/svg">
<circle cx="25" cy="25" r="24" stroke="white" stroke-width="2"/>
<path d="M33.9306 15.6538H16.0691C14.8571 15.6538 13.6952 16.1351 12.8384 16.9922C11.9813 17.849 11.5 19.0112 11.5 20.2232V29.777C11.5 30.9891 11.9813 32.151 12.8384 33.0078C13.6952 33.8649 14.8573 34.3461 16.0694 34.3461H33.9309C35.1429 34.3461 36.3048 33.8648 37.1616 33.0078C38.0187 32.151 38.5 30.9888 38.5 29.7767V20.2229C38.5 19.0109 38.0187 17.849 37.1616 16.9922C36.3048 16.1351 35.1427 15.6538 33.9306 15.6538ZM30.2879 25.1824L22.1879 29.3363C22.1236 29.3693 22.0468 29.367 21.9851 29.3296C21.9231 29.2925 21.8851 29.2256 21.8846 29.1534V20.8458C21.8851 20.7736 21.9231 20.7067 21.9851 20.6696C22.0468 20.6322 22.1236 20.6299 22.1879 20.6629L30.2879 24.8168C30.3572 24.8524 30.4009 24.9237 30.4009 25.0016C30.4009 25.0796 30.3572 25.1508 30.2879 25.1865V25.1824Z" fill="white"/>
</svg>
