<svg width="29" height="30" viewBox="0 0 29 30" fill="none" xmlns="http://www.w3.org/2000/svg">
<path d="M7.06481 23.9609L2.52881 16.0409V14.9849H3.05681C3.90481 14.9849 4.61681 14.9049 5.19281 14.7449C5.78481 14.5849 6.24881 14.3209 6.58481 13.9529C6.92081 13.5849 7.12081 13.0809 7.18481 12.4409H2.52881V10.9049H7.16081C7.04881 10.3129 6.82481 9.83294 6.48881 9.46494C6.15281 9.08094 5.69681 8.80094 5.12081 8.62494C4.56081 8.44894 3.87281 8.36094 3.05681 8.36094H2.52881V6.82494H12.4648V8.36094H7.92881C8.29681 8.66494 8.60081 9.02494 8.84081 9.44094C9.08081 9.85694 9.23281 10.3449 9.29681 10.9049H12.4648V12.4409H9.34481C9.23281 13.6089 8.78481 14.5209 8.00081 15.1769C7.23281 15.8169 6.20881 16.2249 4.92881 16.4009L9.51281 23.9609H7.06481Z" fill="#F97068"/>
<path d="M21.0648 23.9609L16.5288 16.0409V14.9849H17.0568C17.9048 14.9849 18.6168 14.9049 19.1928 14.7449C19.7848 14.5849 20.2488 14.3209 20.5848 13.9529C20.9208 13.5849 21.1208 13.0809 21.1848 12.4409H16.5288V10.9049H21.1608C21.0488 10.3129 20.8248 9.83294 20.4888 9.46494C20.1528 9.08094 19.6968 8.80094 19.1208 8.62494C18.5608 8.44894 17.8728 8.36094 17.0568 8.36094H16.5288V6.82494H26.4648V8.36094H21.9288C22.2968 8.66494 22.6008 9.02494 22.8408 9.44094C23.0808 9.85694 23.2328 10.3449 23.2968 10.9049H26.4648V12.4409H23.3448C23.2328 13.6089 22.7848 14.5209 22.0008 15.1769C21.2328 15.8169 20.2088 16.2249 18.9288 16.4009L23.5128 23.9609H21.0648Z" fill="#F97068"/>
</svg>
