<svg width="42" height="30" viewBox="0 0 42 30" fill="none" xmlns="http://www.w3.org/2000/svg">
<path d="M6.56481 23.9609L2.02881 16.0409V14.9849H2.55681C3.40481 14.9849 4.11681 14.9049 4.69281 14.7449C5.28481 14.5849 5.74881 14.3209 6.08481 13.9529C6.42081 13.5849 6.62081 13.0809 6.68481 12.4409H2.02881V10.9049H6.66081C6.54881 10.3129 6.32481 9.83294 5.98881 9.46494C5.65281 9.08094 5.19681 8.80094 4.62081 8.62494C4.06081 8.44894 3.37281 8.36094 2.55681 8.36094H2.02881V6.82494H11.9648V8.36094H7.42881C7.79681 8.66494 8.10081 9.02494 8.34081 9.44094C8.58081 9.85694 8.73281 10.3449 8.79681 10.9049H11.9648V12.4409H8.84481C8.73281 13.6089 8.28481 14.5209 7.50081 15.1769C6.73281 15.8169 5.70881 16.2249 4.42881 16.4009L9.01281 23.9609H6.56481Z" fill="#F97068"/>
<path d="M20.5648 23.9609L16.0288 16.0409V14.9849H16.5568C17.4048 14.9849 18.1168 14.9049 18.6928 14.7449C19.2848 14.5849 19.7488 14.3209 20.0848 13.9529C20.4208 13.5849 20.6208 13.0809 20.6848 12.4409H16.0288V10.9049H20.6608C20.5488 10.3129 20.3248 9.83294 19.9888 9.46494C19.6528 9.08094 19.1968 8.80094 18.6208 8.62494C18.0608 8.44894 17.3728 8.36094 16.5568 8.36094H16.0288V6.82494H25.9648V8.36094H21.4288C21.7968 8.66494 22.1008 9.02494 22.3408 9.44094C22.5808 9.85694 22.7328 10.3449 22.7968 10.9049H25.9648V12.4409H22.8448C22.7328 13.6089 22.2848 14.5209 21.5008 15.1769C20.7328 15.8169 19.7088 16.2249 18.4288 16.4009L23.0128 23.9609H20.5648Z" fill="#F97068"/>
<path d="M34.5648 23.9609L30.0288 16.0409V14.9849H30.5568C31.4048 14.9849 32.1168 14.9049 32.6928 14.7449C33.2848 14.5849 33.7488 14.3209 34.0848 13.9529C34.4208 13.5849 34.6208 13.0809 34.6848 12.4409H30.0288V10.9049H34.6608C34.5488 10.3129 34.3248 9.83294 33.9888 9.46494C33.6528 9.08094 33.1968 8.80094 32.6208 8.62494C32.0608 8.44894 31.3728 8.36094 30.5568 8.36094H30.0288V6.82494H39.9648V8.36094H35.4288C35.7968 8.66494 36.1008 9.02494 36.3408 9.44094C36.5808 9.85694 36.7328 10.3449 36.7968 10.9049H39.9648V12.4409H36.8448C36.7328 13.6089 36.2848 14.5209 35.5008 15.1769C34.7328 15.8169 33.7088 16.2249 32.4288 16.4009L37.0128 23.9609H34.5648Z" fill="#F97068"/>
</svg>
