<svg width="52" height="71" viewBox="0 0 52 71" fill="none" xmlns="http://www.w3.org/2000/svg">
<path d="M26.1971 0.490234C11.9147 0.490234 0.378906 12.026 0.378906 26.3085C0.378906 29.369 0.928498 32.2724 1.87007 34.941C3.91028 40.7483 7.99111 45.5354 13.1706 48.5957L26.197 70.4902L38.8315 48.7527C46.6789 44.3582 51.9368 35.9612 51.9368 26.3089C52.015 12.0265 40.4797 0.490655 26.197 0.490655L26.1971 0.490234ZM26.1971 46.7904C14.7395 46.7904 5.47977 37.5307 5.47977 26.073C5.47977 14.6154 14.7395 5.35568 26.1971 5.35568C37.6548 5.35568 46.9145 14.6154 46.9145 26.073C46.9145 37.5301 37.6548 46.7904 26.1971 46.7904Z" fill="black"/>
<path d="M36.0838 17.6758L36.6334 17.8329C37.1042 17.99 37.8103 17.8329 38.1246 17.4404L40.4789 14.6935C40.7926 14.301 40.7926 13.6732 40.4007 13.3595L38.8307 11.7896C38.4383 11.3971 37.8892 11.3971 37.4967 11.7113L34.7498 14.0657C34.3574 14.3794 34.2003 15.086 34.3574 15.5569L34.5145 16.1064L28.2363 22.3846L29.6486 23.7968L36.0838 17.6758Z" fill="black"/>
<path d="M17.4084 38.7863C17.2513 38.9434 16.9376 38.9434 16.7805 38.7863L15.9956 38.0013C15.8384 37.8442 15.8384 37.5306 15.9956 37.3735L23.843 29.526L22.8227 28.5056L14.9752 36.3531C14.8181 36.5102 14.5044 36.5102 14.3473 36.3531L13.5624 35.5682C13.4053 35.4111 13.4053 35.0974 13.5624 34.9403L21.4099 27.0928L20.8603 26.5432L11.9936 35.255C11.6011 35.6475 11.6011 36.1966 11.9936 36.589L15.6819 40.2774C16.0744 40.6698 16.6234 40.6698 17.0159 40.2774L25.805 31.4883L25.2554 30.9387L17.4084 38.7863Z" fill="black"/>
<path d="M31.3777 38.5509C32.8689 40.042 34.9878 40.4344 36.7926 39.7278L33.4185 36.3536C32.5552 35.4904 32.5552 34.1563 33.4185 33.3714C34.2817 32.5082 35.6158 32.5082 36.4007 33.3714L39.7748 36.7456C40.4809 34.9408 40.0885 32.8218 38.5979 31.3307C37.4199 29.9972 35.6152 29.5264 34.0458 29.9184L22.3529 18.2259C22.6666 16.5777 22.1958 14.8518 20.9406 13.596C19.4495 12.1049 17.3305 11.7125 15.5257 12.4191L18.8999 15.7933C19.7631 16.6565 19.7631 17.9906 18.8999 18.7755C18.0366 19.6387 16.7026 19.6387 15.9177 18.7755L12.5436 15.4013C11.8374 17.2061 12.2299 19.3251 13.7205 20.8162C14.9762 22.072 16.781 22.5427 18.3503 22.2285L30.0438 33.921C29.6513 35.4903 30.1221 37.2951 31.3778 38.5509H31.3777ZM20.1555 21.4433C19.9984 21.2862 19.9984 21.0508 20.1555 20.8937L20.9405 20.1088C21.0976 19.9517 21.333 19.9517 21.4901 20.1088L32.1627 30.7814C32.3198 30.9385 32.3198 31.1738 32.1627 31.3309L31.3777 32.1159C31.2206 32.273 30.9852 32.273 30.8281 32.1159L20.1555 21.4433Z" fill="black"/>
</svg>
