<svg width="29" height="20" viewBox="0 0 29 20" fill="none" xmlns="http://www.w3.org/2000/svg">
<path d="M5.63373 1.0071C5.53496 1.02647 5.44737 1.0835 5.38926 1.16589L1.07448 7.0332C0.955251 7.19772 0.981717 7.4261 1.1356 7.55897L5.52379 11.2749C4.72325 11.5199 4.13037 12.2549 4.13037 13.1327C4.13037 14.2082 5.01061 15.0885 6.08614 15.0885C6.37481 15.0885 6.64548 15.0189 6.89297 14.9051C6.99556 15.668 7.64384 16.262 8.43292 16.262C8.5718 16.262 8.70795 16.2355 8.83646 16.2009C8.83564 16.2216 8.82418 16.2413 8.82418 16.262C8.82418 17.1215 9.52924 17.8268 10.3887 17.8268C10.6852 17.8268 10.9584 17.7397 11.1955 17.5943C11.2765 18.3798 11.9303 19 12.7357 19C13.1379 19 13.4964 18.8371 13.7747 18.5845C14.1856 18.869 14.5766 19 15.0828 19C15.5966 19 16.0705 18.7427 16.4274 18.3888C16.7395 18.0794 16.9725 17.6849 17.0263 17.2399C17.2645 17.3659 17.5357 17.4355 17.8208 17.4355C18.6257 17.4355 19.2982 16.8775 19.5075 16.1274C19.7111 16.2145 19.9351 16.262 20.1675 16.262C21.0461 16.262 21.7719 15.5989 21.9034 14.7463C21.9302 14.7665 21.973 14.8014 22.0011 14.8197C22.3149 15.023 22.6791 15.0885 23.0158 15.0885C23.4944 15.0885 23.9642 14.9365 24.3116 14.6118C24.6586 14.2871 24.8616 13.7854 24.8616 13.2061C24.8496 12.5813 24.4395 12.0219 23.9326 11.6538V11.6416L23.908 11.6293L16.5005 5.77428C16.3548 5.66323 16.1518 5.66841 16.0116 5.78656C16.0116 5.78656 15.4345 6.24494 14.7649 6.71534C14.4301 6.9508 14.0749 7.18682 13.7624 7.36334C13.45 7.53987 13.1565 7.65038 13.0901 7.65665C12.8648 7.67794 12.5333 7.66348 12.2468 7.5467C12.0113 7.45066 11.8072 7.2583 11.6479 6.93552L14.9237 3.28075C14.9289 3.2772 14.931 3.27202 14.9359 3.26847C15.623 2.77544 16.2104 2.57162 17.0385 2.57162C19.6549 2.57162 21.2096 2.5828 23.517 1.8382L27.4529 7.20427L24.8736 9.30686C24.7754 9.36471 24.7069 9.46266 24.6867 9.57507C24.6665 9.68748 24.6965 9.80317 24.7689 9.89157C24.8412 9.97997 24.9484 10.0326 25.0624 10.0354C25.1768 10.0381 25.2862 9.99061 25.3626 9.90575L28.2351 7.55897C28.3928 7.42964 28.4247 7.20072 28.3085 7.0332L23.9937 1.16589C23.9075 1.04556 23.761 0.984174 23.6147 1.0071C23.594 1.00955 23.5735 1.01365 23.5536 1.01938C21.1774 1.83249 19.7758 1.78932 17.0386 1.78932C16.1598 1.78932 15.4083 2.0237 14.6915 2.48618C13.974 2.0207 13.2258 1.78932 12.3445 1.78932C9.60725 1.78932 8.20566 1.83243 5.82947 1.01938C5.76644 0.998641 5.69905 0.994547 5.63384 1.0071L5.63373 1.0071ZM5.86592 1.83816C8.17338 2.58275 9.72807 2.57157 12.3444 2.57157C13.0268 2.57157 13.5466 2.71345 14.0925 3.03623L10.8776 6.60536C10.7837 6.7126 10.7556 6.86266 10.8045 6.99663C11.0323 7.68066 11.4907 8.0913 11.9534 8.2801C12.4161 8.4689 12.8658 8.45473 13.1635 8.42663C13.4971 8.39552 13.7921 8.24518 14.1413 8.04791C14.4906 7.85064 14.8696 7.59526 15.2169 7.35106C15.7724 6.96062 16.0698 6.71914 16.2439 6.58111L23.4432 12.2651C23.4511 12.2694 23.4593 12.2735 23.4675 12.2771C23.8042 12.5153 24.0683 12.9652 24.0786 13.2061C24.0789 13.2102 24.0786 13.2157 24.0786 13.2184C24.0759 13.6143 23.9523 13.87 23.7731 14.0375C23.5919 14.207 23.3308 14.3063 23.0153 14.3063C22.8284 14.3063 22.5128 14.2143 22.4284 14.1598C22.4661 14.1838 22.3272 14.085 22.172 13.9641C22.0167 13.8433 21.7957 13.6703 21.5485 13.4752C21.0538 13.0847 20.4208 12.5849 19.7884 12.0818C18.5229 11.0752 17.2826 10.0892 17.2826 10.0892C17.2015 10.0245 17.0978 9.99451 16.9947 10.006C16.8916 10.0174 16.7972 10.0693 16.7325 10.1503C16.5974 10.3192 16.6247 10.5653 16.7936 10.7004C16.7936 10.7004 18.0332 11.6859 19.2994 12.6929C19.9325 13.1964 20.5758 13.7072 21.0719 14.0987C21.136 14.1491 21.1723 14.1751 21.2307 14.2209C21.1753 14.2902 21.145 14.3764 21.145 14.4654C21.145 15.0337 20.7046 15.4798 20.1671 15.4798C19.9614 15.4798 19.7747 15.4086 19.617 15.2964C19.6424 15.3144 19.5516 15.2473 19.446 15.1619C19.3404 15.0768 19.1868 14.957 19.0181 14.8198C18.6812 14.5453 18.2514 14.1829 17.8204 13.8296C16.9579 13.1229 16.1091 12.4362 16.1091 12.4362C16.0319 12.3677 15.9309 12.3325 15.8278 12.3382C15.6682 12.3524 15.5334 12.4626 15.4875 12.6163C15.4417 12.7699 15.4944 12.9358 15.6201 13.0351C15.6201 13.0351 16.4562 13.7338 17.3191 14.4408C17.7505 14.7944 18.1914 15.1556 18.5292 15.431C18.6375 15.5191 18.715 15.5734 18.7982 15.6386C18.7982 16.2072 18.3576 16.6533 17.8203 16.6533C17.6146 16.6533 17.428 16.5821 17.2703 16.4699C17.2157 16.4312 15.5309 15.2015 14.5443 14.3919C14.4641 14.3205 14.3582 14.285 14.251 14.294C14.0935 14.3125 13.9626 14.4241 13.9197 14.5769C13.8769 14.7297 13.9304 14.8932 14.0553 14.9908C14.8038 15.605 15.6865 16.2683 16.2556 16.6898V17.0443C16.2556 17.2953 16.1137 17.6039 15.8769 17.8388C15.6398 18.074 15.3227 18.2178 15.0823 18.2178C14.6537 18.2178 14.5222 18.182 14.2021 17.949C14.2586 17.7878 14.2998 17.6151 14.2998 17.4355C14.2998 16.576 13.5947 15.8711 12.7353 15.8711C12.439 15.8711 12.1659 15.9578 11.9285 16.1033C11.8474 15.3177 11.194 14.6975 10.3882 14.6975C10.2496 14.6975 10.1135 14.724 9.98498 14.7587C9.9858 14.7379 9.99726 14.7183 9.99726 14.6975C9.99726 13.8381 9.29193 13.1328 8.43251 13.1328C8.29799 13.1328 8.16648 13.1614 8.04151 13.1939C8.04206 13.1732 8.04151 13.1538 8.04151 13.1328C8.04151 12.2992 7.50864 11.5918 6.77033 11.3115C6.75942 11.2944 6.74714 11.278 6.7335 11.2627L1.92978 7.1924L5.86592 1.83816ZM6.0861 11.9593C6.73876 11.9593 7.25964 12.4798 7.25964 13.1325C7.25964 13.7854 6.73877 14.306 6.0861 14.306C5.43344 14.306 4.91257 13.7855 4.91257 13.1325C4.91257 12.4799 5.43344 11.9593 6.0861 11.9593ZM8.43289 13.915C8.86972 13.915 9.21541 14.2605 9.21541 14.6973C9.21541 15.1338 8.86971 15.4795 8.43289 15.4795C7.99633 15.4795 7.65065 15.1338 7.65065 14.6973C7.65065 14.2604 7.99635 13.915 8.43289 13.915ZM10.3887 15.4795C10.8255 15.4795 11.1712 15.8252 11.1712 16.2617C11.1712 16.6986 10.8255 17.044 10.3887 17.044C9.9521 17.044 9.60642 16.6986 9.60642 16.2617C9.60642 15.8252 9.95211 15.4795 10.3887 15.4795ZM12.7357 16.653C13.1723 16.653 13.518 16.9987 13.518 17.4353C13.518 17.8718 13.1723 18.2175 12.7357 18.2175C12.2992 18.2175 11.9535 17.8718 11.9535 17.4353C11.9535 16.9987 12.2992 16.653 12.7357 16.653Z" fill="#0E62CB" stroke="#0E62CB" stroke-width="0.5"/>
</svg>
