<svg width="22" height="22" viewBox="0 0 22 22" fill="none" xmlns="http://www.w3.org/2000/svg">
<path d="M21.1512 1.13368C21.044 1.01341 20.8748 0.969209 20.7225 1.02197L2.32273 7.41077C2.19249 7.45569 2.09456 7.56454 2.0639 7.69884C2.033 7.83289 2.07341 7.97359 2.17109 8.07081L5.72746 11.6167L6.9653 17.0286C6.9653 17.0286 6.9653 17.0526 6.97861 17.0659V17.0657C6.98479 17.0876 6.99264 17.109 7.00262 17.1296C7.01308 17.1437 7.02472 17.157 7.03708 17.1696L7.05847 17.1962C7.07725 17.2133 7.09793 17.2283 7.11956 17.2413L7.14095 17.2573V17.2575C7.17113 17.2739 7.20345 17.2865 7.23673 17.2946C7.26501 17.2979 7.29354 17.2979 7.32205 17.2946C7.352 17.2982 7.38242 17.2982 7.41237 17.2946L11.6716 16.2298L13.1675 17.2333L13.1678 17.2335C13.264 17.2981 13.3838 17.3176 13.4958 17.287C13.6077 17.2563 13.7006 17.1786 13.7508 17.0738L21.2147 1.5703C21.2832 1.42508 21.258 1.25324 21.151 1.13368L21.1512 1.13368ZM10.8093 15.6551L8.4135 16.2567L9.57407 14.8325L10.8093 15.6551ZM13.2502 16.3313L9.98404 14.1377L16.0135 6.19981C16.1285 6.04865 16.1214 5.83712 15.9959 5.69427C15.8704 5.55142 15.6617 5.51672 15.497 5.61156L12.1296 7.52534C11.9378 7.63419 11.8703 7.87805 11.9791 8.06986C12.088 8.26166 12.3316 8.32892 12.5234 8.22031L14.2004 7.26722L7.54513 16.0168L6.54689 11.6141L10.8541 9.16506C11.0459 9.0562 11.1134 8.81234 11.0046 8.62054C10.8957 8.42874 10.6521 8.36147 10.46 8.47009L6.15283 10.9191L3.18496 7.94316L20.0806 2.08677L13.2502 16.3313Z" fill="#0E62CB" stroke="#0E62CB" stroke-width="0.5"/>
<path d="M5.50082 13.983C5.67861 13.8521 5.71687 13.6018 5.58591 13.424C5.45519 13.246 5.20491 13.208 5.02689 13.3387L2.39957 15.266C2.22084 15.3953 2.18091 15.6451 2.31045 15.8236C2.43974 16.0024 2.68931 16.0423 2.86804 15.913L5.50082 13.983Z" fill="#0E62CB" stroke="#0E62CB" stroke-width="0.5"/>
<path d="M1.932 19.046L1.14934 19.6716C0.977263 19.8096 0.949931 20.0611 1.08802 20.2332C1.22635 20.4053 1.47781 20.4326 1.64966 20.2945L2.43231 19.669C2.52168 19.6053 2.58086 19.5076 2.59607 19.399C2.61129 19.2903 2.5811 19.18 2.51265 19.0945C2.4442 19.0087 2.34342 18.955 2.23409 18.9457C2.12476 18.9367 2.01638 18.9728 1.93461 19.046H1.932Z" fill="#0E62CB" stroke="#0E62CB" stroke-width="0.5"/>
<path d="M5.70622 16.5386C5.63991 16.4559 5.54341 16.4029 5.43812 16.3915C5.33284 16.3801 5.22706 16.411 5.14459 16.4773L2.7968 18.354C2.62472 18.4921 2.59739 18.7436 2.73548 18.9156C2.87357 19.0877 3.12503 19.1151 3.29712 18.977L5.64491 17.1002H5.64515C5.72762 17.0339 5.78062 16.9374 5.79203 16.8321C5.80368 16.7266 5.77278 16.6211 5.70623 16.5386L5.70622 16.5386Z" fill="#0E62CB" stroke="#0E62CB" stroke-width="0.5"/>
<path d="M7.10553 18.0748L4.31588 20.3028C4.15782 20.4442 4.13762 20.6843 4.27 20.8499C4.40239 21.0154 4.64102 21.0489 4.81358 20.9257L7.60347 18.6978C7.69284 18.6341 7.75202 18.5364 7.76723 18.4278C7.78244 18.3191 7.75226 18.2089 7.68381 18.1233C7.61512 18.0375 7.51434 17.9838 7.40501 17.9745C7.29568 17.9655 7.18754 18.0016 7.10553 18.0748H7.10553Z" fill="#0E62CB" stroke="#0E62CB" stroke-width="0.5"/>
</svg>
