<svg width="22" height="22" viewBox="0 0 22 22" fill="none" xmlns="http://www.w3.org/2000/svg">
<path d="M13.3515 21C13.1399 21 12.9283 20.9448 12.7396 20.8344L11.2651 19.9855C11.0995 19.8912 10.8948 19.8912 10.7314 19.9855L9.25692 20.8344C9.06369 20.9448 8.85436 20.9977 8.64734 20.9977C8.22411 20.9977 7.81004 20.7769 7.58458 20.3858L6.73348 18.909C6.63917 18.7457 6.46205 18.6422 6.27113 18.6422H4.58268C3.90871 18.6422 3.35891 18.0924 3.35891 17.4184V15.7277C3.35891 15.5368 3.25539 15.3596 3.09207 15.2653L1.61297 14.4142C1.33003 14.2509 1.12761 13.9887 1.04252 13.6712C0.957405 13.3538 1.00111 13.0249 1.16443 12.7419L2.01326 11.2674C2.10757 11.1018 2.10757 10.897 2.01326 10.7337L1.16443 9.25919C1.00111 8.97625 0.957401 8.64498 1.04252 8.32985C1.12762 8.01241 1.33005 7.75018 1.61297 7.58685L3.08976 6.73575C3.25308 6.64144 3.35659 6.46432 3.35659 6.2734V4.58268C3.35659 3.90871 3.90636 3.35891 4.58037 3.35891H6.27109C6.46201 3.35891 6.63914 3.25539 6.73344 3.09207L7.58454 1.61297C7.74786 1.33003 8.01009 1.12761 8.32754 1.04251C8.64498 0.957403 8.97392 1.00111 9.25688 1.16443L10.7314 2.01326C10.897 2.10757 11.1017 2.10757 11.2651 2.01326L12.7396 1.16443C13.3262 0.828581 14.0761 1.02871 14.4119 1.61299L15.263 3.08977C15.3573 3.25309 15.5345 3.35661 15.7254 3.35661H17.4161C18.0901 3.35661 18.6399 3.90637 18.6399 4.58038V6.2711C18.6399 6.46203 18.7434 6.63915 18.9067 6.73346L20.3858 7.58456C20.6688 7.74788 20.8712 8.01011 20.9586 8.32755C21.0437 8.6427 21 8.97393 20.839 9.25689L19.9901 10.7291C19.8981 10.897 19.8981 11.1017 19.9924 11.2651L20.8413 12.7396C21.0046 13.0225 21.046 13.3538 20.9609 13.6689C20.8758 13.984 20.6733 14.2486 20.3881 14.4119L18.909 15.263C18.7434 15.3596 18.6399 15.5367 18.6399 15.7254V17.4138C18.6399 18.0878 18.0901 18.6376 17.4161 18.6376H15.7254C15.5345 18.6376 15.3573 18.7411 15.263 18.9044L14.4119 20.3835C14.2486 20.6665 13.9864 20.8689 13.6689 20.954C13.5654 20.9862 13.4596 21 13.3515 21L13.3515 21ZM11.0006 19.2241C11.2122 19.2241 11.4238 19.2794 11.6125 19.3875L13.087 20.2363C13.2112 20.3076 13.3561 20.3283 13.4941 20.2892C13.6322 20.2524 13.7472 20.165 13.8185 20.0408L14.6696 18.5617C14.8858 18.1821 15.293 17.9475 15.73 17.9475H17.4185C17.7129 17.9475 17.9522 17.7082 17.9522 17.4138V15.7231C17.9522 15.2883 18.1868 14.8811 18.5664 14.6626L20.0455 13.8115C20.1697 13.7402 20.2571 13.6252 20.2939 13.4872C20.3307 13.3492 20.3123 13.2042 20.241 13.08L19.3922 11.6055C19.1759 11.2306 19.1736 10.7636 19.3853 10.3864L19.3876 10.3818L20.2364 8.90724C20.3836 8.65191 20.2939 8.32526 20.0386 8.17804L18.5595 7.32694C18.1799 7.11071 17.9453 6.70357 17.9453 6.2665V4.57805C17.9453 4.28361 17.706 4.04436 17.4116 4.04436H15.7209C15.2838 4.04436 14.8789 3.80973 14.6604 3.43247L13.8093 1.95569C13.738 1.83147 13.623 1.74406 13.485 1.70725C13.347 1.67045 13.202 1.68885 13.0778 1.76016L11.6033 2.60899C11.2261 2.82522 10.7568 2.82522 10.3795 2.60899L8.90502 1.76016C8.7808 1.68885 8.63588 1.66815 8.49786 1.70495C8.35984 1.74176 8.24483 1.82917 8.17352 1.95339L7.32242 3.43248C7.10619 3.81203 6.69905 4.04668 6.26197 4.04668H4.57126C4.27682 4.04668 4.03756 4.28592 4.03756 4.58038V6.27109C4.03756 6.70817 3.80293 7.11302 3.42567 7.33154L1.94889 8.18264C1.82467 8.25395 1.73726 8.36897 1.70046 8.50698C1.66365 8.645 1.68206 8.78992 1.75337 8.91414L2.60219 10.3887C2.81842 10.7659 2.81842 11.2352 2.60219 11.6124L1.75337 13.0869C1.68206 13.2112 1.66135 13.3561 1.69816 13.4941C1.73496 13.6321 1.82237 13.7471 1.94659 13.8184L3.42569 14.6695C3.80524 14.8858 4.03989 15.2929 4.03989 15.73V17.4207C4.03989 17.7151 4.27912 17.9544 4.57358 17.9544H6.2643C6.70137 17.9544 7.10623 18.189 7.32474 18.5663L8.17584 20.0431C8.32306 20.2984 8.64972 20.3858 8.90505 20.2386L10.3796 19.3898C10.5774 19.2793 10.789 19.2241 11.0007 19.2241L11.0006 19.2241Z" fill="#0E62CB" stroke="#0E62CB" stroke-width="0.5"/>
<path d="M14.189 7.31934L14.677 7.80735L7.81321 14.6712L7.3252 14.1832L14.189 7.31934Z" fill="#0E62CB" stroke="#0E62CB" stroke-width="0.5"/>
<path d="M8.39927 10.1081C7.45382 10.1081 6.68555 9.33979 6.68555 8.39439C6.68555 7.44894 7.45387 6.68066 8.39927 6.68066C9.34472 6.68066 10.113 7.44898 10.113 8.39439C10.113 9.33983 9.34468 10.1081 8.39927 10.1081ZM8.39927 7.37075C7.83571 7.37075 7.37563 7.83083 7.37563 8.39439C7.37563 8.95795 7.83571 9.41803 8.39927 9.41803C8.96283 9.41803 9.42291 8.95795 9.42291 8.39439C9.42291 7.83083 8.96283 7.37075 8.39927 7.37075Z" fill="#0E62CB" stroke="#0E62CB" stroke-width="0.5"/>
<path d="M13.6043 15.3088C12.6589 15.3088 11.8906 14.5405 11.8906 13.5951C11.8906 12.6497 12.6589 11.8813 13.6043 11.8813C14.5498 11.8813 15.3181 12.6497 15.3181 13.5951C15.3181 14.5405 14.5498 15.3088 13.6043 15.3088ZM13.6043 12.5714C13.0408 12.5714 12.5807 13.0315 12.5807 13.5951C12.5807 14.1586 13.0408 14.6187 13.6043 14.6187C14.1679 14.6187 14.628 14.1586 14.628 13.5951C14.628 13.0315 14.1679 12.5714 13.6043 12.5714Z" fill="#0E62CB" stroke="#0E62CB" stroke-width="0.5"/>
</svg>
