<svg width="20" height="20" viewBox="0 0 20 20" fill="none" xmlns="http://www.w3.org/2000/svg">
<path d="M8.12457 0.000297631C3.64543 0.000297631 0 3.64566 0 8.12487C0 12.604 3.64536 16.2494 8.12457 16.2494C10.1165 16.2494 11.9356 15.5186 13.3507 14.3241L19.0266 20L20 19.0266L14.3237 13.3503C15.5182 11.9355 16.2491 10.1162 16.2491 8.1242C16.2491 3.64543 12.6036 0 8.12449 0L8.12457 0.000297631ZM8.12457 1.35453C9.75331 1.35453 11.253 1.92432 12.4196 2.87777L2.87758 12.4197C1.92398 11.2533 1.35434 9.75354 1.35434 8.12475C1.35434 4.37739 4.37746 1.35434 8.12475 1.35434L8.12457 1.35453ZM7.44753 2.03127V3.38535C5.95405 3.38535 4.73947 4.59993 4.73947 6.09341C4.73947 7.04336 5.2253 7.87386 5.96655 8.35734L6.9822 7.36293C6.46822 7.17067 6.0937 6.67383 6.0937 6.09356C6.0937 5.34676 6.70099 4.73947 7.44779 4.73947H9.60596L10.833 3.5124V3.38553H8.80202V2.03145L7.44749 2.0316L7.44753 2.03127ZM13.3716 3.82992C14.3252 4.99639 14.8948 6.49612 14.8948 8.1249C14.8948 11.8723 11.8717 14.8953 8.12442 14.8953C6.49567 14.8953 4.99595 14.3255 3.82944 13.3721L13.3716 3.82992ZM10.2827 7.89202L9.26701 8.88643C9.78099 9.07869 10.1555 9.57552 10.1555 10.1558C10.1555 10.9026 9.54822 11.5099 8.80142 11.5099H6.64355L5.41648 12.737V12.8638H7.44749V14.2179H8.80157V12.8638C10.295 12.8638 11.5096 11.6493 11.5096 10.1558C11.5098 9.20597 11.024 8.37532 10.2827 7.89195L10.2827 7.89202Z" fill="#0E62CB"/>
</svg>
