<svg width="82" height="71" viewBox="0 0 82 71" fill="none" xmlns="http://www.w3.org/2000/svg">
<path d="M77.4953 0.490234H4.47045C3.43047 0.501756 2.4365 0.922608 1.7047 1.66121C0.972154 2.39981 0.56041 3.39741 0.558594 4.43736V57.163C0.560413 58.203 0.972169 59.1999 1.7047 59.9392C2.43662 60.6778 3.4305 61.098 4.47045 61.1096H61.0725L62.9245 66.569C63.1021 67.0669 63.5612 67.4095 64.0894 67.4386H64.1591C64.6546 67.4362 65.1057 67.153 65.324 66.7085L67.9322 61.1103H68.367L77.4164 70.1075C77.6578 70.3561 77.9913 70.4944 78.3381 70.4901C78.6753 70.4847 78.9967 70.3476 79.2332 70.1075C79.7371 69.5963 79.7371 68.7758 79.2332 68.2647L72.1049 61.1096H77.4947C78.5407 61.1072 79.5431 60.6906 80.2829 59.9514C81.0227 59.2116 81.4393 58.2092 81.4418 57.1632V4.43747C81.4393 3.39142 81.0227 2.38908 80.2829 1.64921C79.5431 0.909398 78.5407 0.492796 77.4947 0.490374L77.4953 0.490234ZM78.7997 57.1637C78.7997 57.8895 78.2212 58.4832 77.4953 58.502H70.9752L75.8872 56.1897C76.3887 55.9732 76.7022 55.4681 76.6731 54.9229C76.644 54.3777 76.2783 53.9084 75.7568 53.7471L58.8651 48.0614C58.3927 47.9056 57.8731 48.0263 57.5177 48.3743C57.1696 48.726 57.0484 49.2433 57.2048 49.7133L60.1865 58.5025L4.4709 58.5019C3.74503 58.4831 3.16653 57.8894 3.16653 57.1636V10.7049H78.7994L78.7997 57.1637ZM64.3599 62.6753L60.5262 51.3737L71.8279 55.1989C71.8279 55.1989 66.6813 57.7374 66.5509 58.0158L64.3599 62.6753ZM3.16586 8.09761V4.43799C3.16586 3.71211 3.74438 3.11784 4.47024 3.09904H77.4951C78.2349 3.09904 78.834 3.69878 78.834 4.43799V8.09761H3.16586Z" fill="black"/>
<path d="M17.1723 4.94124C17.1414 4.86302 17.1038 4.78722 17.0589 4.71567C17.0086 4.64775 16.9534 4.58407 16.894 4.52404C16.5817 4.22689 16.142 4.1032 15.7206 4.19355L15.4774 4.26328L15.2512 4.38517H15.2506C15.1785 4.43308 15.1118 4.48826 15.0511 4.55012C14.9911 4.61015 14.9359 4.67382 14.8856 4.74174C14.8413 4.8133 14.8031 4.8891 14.7728 4.96732C14.7024 5.12619 14.6673 5.29842 14.6685 5.47185C14.66 5.55554 14.66 5.63982 14.6685 5.72412C14.6855 5.8078 14.7115 5.88906 14.7467 5.96728C14.7752 6.04672 14.8134 6.12252 14.8595 6.19347C14.9098 6.26381 14.965 6.33052 15.025 6.39298C15.0833 6.45484 15.1506 6.50759 15.2246 6.54943C15.3677 6.64464 15.5271 6.71256 15.6945 6.74955C15.7782 6.75865 15.8625 6.75865 15.9462 6.74955C16.2918 6.74773 16.6223 6.61008 16.8679 6.36692C16.9273 6.30446 16.9825 6.23775 17.0329 6.1674C17.0795 6.09645 17.1171 6.02065 17.1463 5.94122C17.1814 5.86299 17.2075 5.78174 17.2245 5.69805C17.233 5.61376 17.233 5.52948 17.2245 5.44579C17.2257 5.27235 17.1899 5.10013 17.1202 4.94126L17.1723 4.94124Z" fill="black"/>
<path d="M10.3206 4.52389C10.0744 4.76706 9.93618 5.09936 9.93801 5.44563C9.92952 5.52931 9.92952 5.6136 9.93801 5.69789C9.99622 5.94834 10.1193 6.17878 10.2946 6.36676C10.5402 6.60993 10.8707 6.74758 11.2163 6.74939C11.562 6.75121 11.8943 6.61295 12.1374 6.36676C12.3806 6.12177 12.5177 5.79068 12.5201 5.44563C12.5195 5.09997 12.3824 4.76827 12.1374 4.52389C11.6232 4.05454 10.8349 4.05454 10.3207 4.52389H10.3206Z" fill="black"/>
<path d="M5.60078 4.52397C5.3564 4.76834 5.21875 5.10005 5.21875 5.4457C5.22057 5.79075 5.35822 6.12185 5.60078 6.36683C5.84455 6.61303 6.17625 6.7513 6.52252 6.74947C7.24292 6.74947 7.82628 6.1655 7.82628 5.4457C7.82628 5.10005 7.68863 4.76834 7.44425 4.52397C6.92578 4.03824 6.11925 4.03824 5.60078 4.52397Z" fill="black"/>
<path d="M23.2344 38.9794C23.0984 39.5686 23.1437 40.203 23.461 40.7015L27.721 48.0885C28.3554 49.1762 29.7151 49.5388 30.8025 48.9496L33.7935 47.2729C34.1109 47.454 34.428 47.6807 34.8358 47.8621V50.7172C34.8358 51.9861 35.878 52.9831 37.1017 52.9831H45.1683C46.4372 52.9831 47.4342 51.9409 47.4342 50.7172V47.7717C47.6609 47.6358 47.9327 47.4999 48.1594 47.3639L51.0145 49.0406C52.1022 49.6751 53.5071 49.3125 54.1415 48.2251L58.4919 40.9279C58.8093 40.3842 58.8997 39.7949 58.7185 39.2057C58.5826 38.6165 58.1748 38.118 57.6763 37.8009L54.8667 36.1243V35.4898V35.0365L57.7218 33.4051C58.2203 33.0877 58.6281 32.5895 58.764 32.0454C58.8999 31.4562 58.8547 30.8218 58.5374 30.3233L54.2774 22.9363C53.6429 21.8486 52.2833 21.486 51.1959 22.0752L48.2952 23.707C48.0234 23.5259 47.706 23.3896 47.4341 23.2085V20.263C47.4341 18.9941 46.3919 17.9971 45.1682 17.9971H37.1016C35.8327 17.9971 34.8357 19.0393 34.8357 20.263V23.1181C34.5183 23.2992 34.2013 23.4355 33.9294 23.6166L31.0291 21.9396C29.9413 21.3052 28.582 21.6677 27.9476 22.7552L23.5514 30.0517C23.234 30.5954 23.1436 31.1846 23.2796 31.7739C23.4155 32.3631 23.8233 32.8616 24.3218 33.1786L27.1314 34.8553V35.4898V35.9431L24.2763 37.5745C23.7329 37.8916 23.3704 38.3901 23.2344 38.9793L23.2344 38.9794ZM29.2162 37.8917C29.6695 37.6198 29.9414 37.1213 29.8958 36.5776C29.8506 36.215 29.8506 35.8524 29.8506 35.4899C29.8506 35.1273 29.8958 34.7195 29.9414 34.3117C29.9866 33.768 29.7602 33.2695 29.3069 32.9976L26.1347 31.1395L30.0773 24.5685L33.3402 26.4718C33.7935 26.7437 34.3825 26.6985 34.8357 26.3811C35.3794 25.9733 35.878 25.6559 36.6483 25.3841C37.192 25.203 37.5546 24.6589 37.5546 24.1152V20.8071H44.7148V24.1607C44.7148 24.7044 45.0322 25.2029 45.5304 25.3843C46.21 25.7017 46.89 26.064 47.4789 26.4721C47.9322 26.7894 48.4759 26.7894 48.9292 26.5628L52.1921 24.7047L55.9988 31.3213L52.7817 33.088C52.3284 33.3599 52.0565 33.8584 52.102 34.4021C52.1472 34.7647 52.1472 35.1272 52.1472 35.4898C52.1472 35.8523 52.102 36.2602 52.0565 36.668C52.0113 37.2117 52.2376 37.7102 52.6909 37.982L55.8631 39.8854L51.9658 46.4564L48.748 44.5531C48.2947 44.2812 47.7058 44.3264 47.2977 44.5983C46.7085 45.0061 46.1195 45.3234 45.4851 45.5953C44.9866 45.8219 44.6696 46.3204 44.6696 46.8642V50.2178L37.5093 50.2181V46.91C37.5093 46.3208 37.1467 45.8223 36.603 45.6411C35.7875 45.3237 35.2434 45.0066 34.6545 44.5534C34.2467 44.236 33.6575 44.1908 33.159 44.4626L29.8506 46.366L26.0439 39.7494L29.2162 37.8917Z" fill="black"/>
<path d="M41.0002 42.8766C45.0787 42.8766 48.3871 39.5685 48.3871 35.4897C48.3871 31.4112 45.079 28.1028 41.0002 28.1028C36.9217 28.1028 33.6133 31.4109 33.6133 35.4897C33.6133 39.5682 36.9217 42.8766 41.0002 42.8766ZM41.0002 30.822C43.5835 30.822 45.668 32.9068 45.668 35.4898C45.668 38.0731 43.5832 40.1575 41.0002 40.1575C38.4169 40.1575 36.3324 38.0728 36.3324 35.4898C36.3324 32.9065 38.4169 30.822 41.0002 30.822Z" fill="black"/>
</svg>
