<svg width="26" height="22" viewBox="0 0 26 22" fill="none" xmlns="http://www.w3.org/2000/svg">
<path d="M23.2175 1H4.53704C4.06851 1.00052 3.61933 1.18681 3.28804 1.51813C2.95672 1.84945 2.77026 2.29865 2.76973 2.76714V10.4792C1.62533 11.6464 0.989175 13.2189 1.00014 14.8534C1.01128 16.4879 1.66852 18.0517 2.82843 19.2034C3.98847 20.3549 5.557 21.0008 7.19167 21C10.4586 21 13.1423 18.4565 13.3678 15.2459H23.2175C23.6862 15.2454 24.1354 15.0589 24.4665 14.7278C24.7978 14.3965 24.9843 13.9473 24.9848 13.4788V2.76714C24.9843 2.29861 24.7978 1.84943 24.4667 1.51813C24.1353 1.18681 23.6861 1.00053 23.2175 1ZM7.19167 20.415C5.70484 20.415 4.27875 19.8242 3.22733 18.7728C2.17573 17.7214 1.58517 16.2953 1.58517 14.8085C1.58517 13.3215 2.17591 11.8954 3.22733 10.844C4.27875 9.79254 5.70484 9.2018 7.19167 9.2018C8.67868 9.2018 10.1048 9.79254 11.1562 10.844C12.2076 11.8954 12.7983 13.3215 12.7983 14.8085C12.7966 16.295 12.2053 17.72 11.1543 18.7711C10.1032 19.8221 8.67814 20.4134 7.19167 20.415ZM24.3999 13.4789C24.3996 13.7923 24.2749 14.0928 24.0533 14.3146C23.8317 14.5362 23.5312 14.6609 23.2176 14.6612H13.3818C13.3459 13.1197 12.7358 11.6471 11.671 10.5318C10.6062 9.41669 9.16337 8.73908 7.62519 8.63202C6.08697 8.52495 4.56426 8.9959 3.3551 9.95278V2.76755C3.35545 2.45417 3.48011 2.15368 3.70174 1.93203C3.92355 1.71039 4.22407 1.58574 4.53744 1.58539H23.2179C23.5314 1.58574 23.8319 1.7104 24.0536 1.93203C24.2752 2.15367 24.3999 2.45417 24.4002 2.76755L24.3999 13.4789Z" fill="#0E62CB" stroke="#0E62CB" stroke-width="0.5"/>
<path d="M19.7878 9.15879C19.4592 9.15827 19.1349 9.23226 18.8391 9.37503C18.1604 9.04876 17.3618 9.09385 16.7244 9.49464C16.087 9.89543 15.7002 10.5957 15.7002 11.3485C15.7002 12.1015 16.0871 12.8016 16.7244 13.2024C17.3618 13.6032 18.1605 13.6484 18.8391 13.3222C19.4396 13.6108 20.1388 13.6105 20.7391 13.3211C21.3392 13.0318 21.775 12.4849 21.9231 11.8351C22.0711 11.1856 21.9153 10.5038 21.4997 9.983C21.0841 9.46206 20.4541 9.1588 19.7878 9.15898V9.15879ZM17.8904 12.9534C17.4323 12.9541 16.9959 12.7589 16.6908 12.4173C16.3858 12.0756 16.2413 11.6198 16.2937 11.1648C16.3463 10.7097 16.5905 10.2988 16.9654 10.0354C17.34 9.77216 17.8094 9.68145 18.2553 9.78626C17.8348 10.1973 17.5979 10.7605 17.5979 11.3487C17.5979 11.9368 17.8348 12.5 18.2553 12.9111C18.1357 12.9391 18.0133 12.9534 17.8904 12.9534ZM19.4953 11.3485C19.4951 11.8597 19.2514 12.34 18.8391 12.6419C18.4266 12.34 18.1829 11.8597 18.1829 11.3485C18.1829 10.8375 18.4266 10.357 18.8391 10.0551C19.2514 10.3571 19.4951 10.8375 19.4953 11.3485ZM19.7878 12.9534C19.6649 12.9534 19.5423 12.9391 19.4227 12.9111C19.8432 12.4999 20.0801 11.9366 20.0801 11.3487C20.0801 10.7606 19.8432 10.1973 19.4227 9.78624C19.8682 9.68196 20.3371 9.77301 20.7114 10.0364C21.0857 10.2999 21.3296 10.7104 21.3821 11.165C21.4345 11.6197 21.2903 12.075 20.9858 12.4166C20.6813 12.7582 20.2454 12.9535 19.7878 12.9535V12.9534Z" fill="#0E62CB" stroke="#0E62CB" stroke-width="0.5"/>
<path d="M4.98585 4.25955H12.7902C12.9517 4.25955 13.0827 4.12862 13.0827 3.96706C13.0827 3.80549 12.9517 3.67456 12.7902 3.67456H4.98585C4.82429 3.67456 4.69336 3.80549 4.69336 3.96706C4.69336 4.12862 4.82429 4.25955 4.98585 4.25955Z" fill="#0E62CB" stroke="#0E62CB" stroke-width="0.5"/>
<path d="M14.6972 3.67432H13.8521C13.6905 3.67432 13.5596 3.80524 13.5596 3.96681C13.5596 4.12838 13.6905 4.25931 13.8521 4.25931H14.6972C14.8587 4.25931 14.9897 4.12838 14.9897 3.96681C14.9897 3.80524 14.8587 3.67432 14.6972 3.67432Z" fill="#0E62CB" stroke="#0E62CB" stroke-width="0.5"/>
<path d="M5.35043 5.14917H4.98585C4.82429 5.14917 4.69336 5.2801 4.69336 5.44166C4.69336 5.60323 4.82429 5.73416 4.98585 5.73416H5.35043C5.512 5.73416 5.64292 5.60323 5.64292 5.44166C5.64292 5.2801 5.512 5.14917 5.35043 5.14917Z" fill="#0E62CB" stroke="#0E62CB" stroke-width="0.5"/>
<path d="M11.3153 5.14917H6.44191C6.28034 5.14917 6.14941 5.2801 6.14941 5.44166C6.14941 5.60323 6.28034 5.73416 6.44191 5.73416H11.3153C11.4768 5.73416 11.6078 5.60323 11.6078 5.44166C11.6078 5.2801 11.4768 5.14917 11.3153 5.14917Z" fill="#0E62CB" stroke="#0E62CB" stroke-width="0.5"/>
<path d="M14.6964 5.14917H12.3765C12.2149 5.14917 12.084 5.2801 12.084 5.44166C12.084 5.60323 12.2149 5.73416 12.3765 5.73416H14.6964C14.858 5.73416 14.9889 5.60323 14.9889 5.44166C14.9889 5.2801 14.858 5.14917 14.6964 5.14917Z" fill="#0E62CB" stroke="#0E62CB" stroke-width="0.5"/>
<path d="M9.68901 13.0555L6.15906 15.9275L4.73369 14.2584V14.2582C4.62853 14.1364 4.44468 14.1224 4.32228 14.2269C4.19989 14.3315 4.18492 14.5152 4.28886 14.6381L5.89968 16.5245C6.00275 16.6454 6.18347 16.6617 6.30674 16.5615L10.0585 13.5094C10.1839 13.4074 10.2028 13.2232 10.1008 13.098C9.9988 12.9726 9.8146 12.9537 9.68941 13.0555L9.68901 13.0555Z" fill="#0E62CB" stroke="#0E62CB" stroke-width="0.5"/>
</svg>
