<svg width="20" height="22" viewBox="0 0 20 22" fill="none" xmlns="http://www.w3.org/2000/svg">
<path d="M10.1682 2.66357C5.11634 2.66357 1 6.77987 1 11.8318C1 16.8836 5.11629 21 10.1682 21C15.2201 21 19.3364 16.8837 19.3364 11.8318C19.3364 6.77991 15.2201 2.66357 10.1682 2.66357ZM10.1682 3.59902C14.7289 3.59902 18.4009 7.27106 18.4009 11.8317C18.4009 16.369 14.7288 20.0644 10.1682 20.0644C5.60757 20.0644 1.93553 16.369 1.93553 11.8317C1.93553 7.27098 5.60757 3.59902 10.1682 3.59902Z" fill="#0E62CB" stroke="#0E62CB" stroke-width="0.25"/>
<path d="M9.70117 1.96191V3.13133H10.6366V1.96191H9.70117Z" fill="#0E62CB" stroke="#0E62CB" stroke-width="0.25"/>
<path d="M8.43711 1.00295C8.22666 0.979622 8.01621 1.0966 7.92257 1.28372C7.80576 1.47069 7.80576 1.6813 7.92257 1.86843C8.01621 2.05539 8.22667 2.17236 8.43711 2.17236H11.8987C12.1092 2.17236 12.3196 2.05539 12.4132 1.86843C12.5301 1.6813 12.5301 1.47069 12.4132 1.28372C12.3196 1.0966 12.1091 0.979625 11.8987 1.00295H8.43711Z" fill="#0E62CB" stroke="#0E62CB" stroke-width="0.25"/>
<path d="M17.1142 4.16016C16.9271 4.16016 16.7635 4.25364 16.623 4.37061L16.2021 4.81503C16.015 4.97867 15.9448 5.23594 16.015 5.49321C16.0618 5.72716 16.2722 5.93763 16.5062 5.98444C16.7635 6.0546 17.0206 5.98444 17.1844 5.79732L17.6288 5.37641C17.8393 5.16579 17.8861 4.86187 17.7924 4.58109C17.6756 4.32381 17.3949 4.16018 17.1143 4.16018L17.1142 4.16016Z" fill="#0E62CB" stroke="#0E62CB" stroke-width="0.25"/>
<path d="M10.1689 11.3408C10.0286 11.3643 9.91162 11.411 9.84148 11.5046C9.74799 11.5748 9.70117 11.6917 9.70117 11.832V16.1823C9.70117 16.3459 9.79465 16.5097 9.93496 16.5798C10.0754 16.6733 10.2624 16.6733 10.4028 16.5798C10.5432 16.5097 10.6366 16.3459 10.6366 16.1823V11.832C10.6366 11.6917 10.5898 11.5748 10.4963 11.4813C10.4028 11.411 10.2859 11.3408 10.1689 11.3408Z" fill="#0E62CB" stroke="#0E62CB" stroke-width="0.25"/>
<path d="M13.2075 8.25342C13.0905 8.25342 12.9735 8.30024 12.8801 8.39372L9.83955 11.5044C9.72258 11.6213 9.67575 11.785 9.69925 11.9488C9.74607 12.1124 9.88637 12.2527 10.05 12.2762C10.2138 12.323 10.3774 12.2762 10.4944 12.1592L13.5582 9.04859C13.6752 8.90829 13.722 8.72117 13.6519 8.53405C13.5817 8.34693 13.3946 8.25344 13.2075 8.25344L13.2075 8.25342Z" fill="#0E62CB" stroke="#0E62CB" stroke-width="0.25"/>
</svg>
