<svg width="46" height="46" viewBox="0 0 46 46" fill="none" xmlns="http://www.w3.org/2000/svg">
<path d="M28.0209 44.9912C27.5555 44.9912 27.0902 44.8698 26.6753 44.627L23.4326 42.7603C23.0684 42.5529 22.6182 42.5529 22.259 42.7603L19.0164 44.627C18.5914 44.8698 18.1311 44.9861 17.6758 44.9861C16.7451 44.9861 15.8345 44.5005 15.3387 43.6405L13.467 40.3929C13.2596 40.0337 12.8701 39.8061 12.4502 39.8061H8.73715C7.25501 39.8061 6.04592 38.5971 6.04592 37.1149V33.3968C6.04592 32.9769 5.81828 32.5874 5.45911 32.38L2.2064 30.5083C1.58418 30.1492 1.13902 29.5725 0.951894 28.8744C0.764727 28.1763 0.860839 27.4529 1.22 26.8307L3.08668 23.588C3.29408 23.2238 3.29408 22.7736 3.08668 22.4144L1.22 19.1717C0.860836 18.5495 0.764718 17.821 0.951894 17.128C1.13906 16.4299 1.58422 15.8533 2.2064 15.4941L5.45402 13.6224C5.81319 13.415 6.04083 13.0255 6.04083 12.6056V8.88754C6.04083 7.40539 7.24983 6.19631 8.73207 6.19631H12.4502C12.87 6.19631 13.2595 5.96867 13.4669 5.6095L15.3386 2.35678C15.6978 1.73456 16.2744 1.28941 16.9725 1.10228C17.6706 0.915113 18.394 1.01122 19.0163 1.37039L22.2589 3.23706C22.6231 3.44447 23.0733 3.44447 23.4326 3.23706L26.6752 1.37039C27.9651 0.631819 29.6142 1.07192 30.3529 2.35682L32.2245 5.60445C32.4319 5.96361 32.8214 6.19126 33.2413 6.19126H36.9594C38.4415 6.19126 39.6506 7.40025 39.6506 8.88249V12.6006C39.6506 13.0205 39.8783 13.41 40.2374 13.6174L43.4902 15.489C44.1124 15.8482 44.5575 16.4249 44.7497 17.123C44.9369 17.816 44.8408 18.5444 44.4867 19.1667L42.62 22.4042C42.4177 22.7735 42.4177 23.2237 42.6251 23.5829L44.4917 26.8255C44.8509 27.4477 44.942 28.1762 44.7548 28.8692C44.5676 29.5623 44.1225 30.144 43.4952 30.5032L40.2425 32.3749C39.8783 32.5873 39.6506 32.9768 39.6506 33.3916V37.1047C39.6506 38.5869 38.4416 39.796 36.9594 39.796H33.2413C32.8214 39.796 32.4319 40.0236 32.2245 40.3828L30.3529 43.6355C29.9937 44.2577 29.417 44.7029 28.7189 44.89C28.4913 44.9608 28.2586 44.9912 28.0208 44.9912L28.0209 44.9912ZM22.8509 41.0859C23.3163 41.0859 23.7817 41.2073 24.1965 41.4451L27.4392 43.3117C27.7123 43.4686 28.031 43.5141 28.3345 43.4281C28.6381 43.3471 28.891 43.1549 29.0478 42.8818L30.9195 39.629C31.395 38.7944 32.2904 38.2783 33.2515 38.2783H36.9646C37.6121 38.2783 38.1383 37.7522 38.1383 37.1047V33.3866C38.1383 32.4305 38.6543 31.5351 39.489 31.0545L42.7417 29.1829C43.0149 29.0261 43.2071 28.7731 43.288 28.4696C43.369 28.1661 43.3285 27.8474 43.1717 27.5742L41.305 24.3316C40.8295 23.507 40.8244 22.4801 41.2898 21.6505L41.2949 21.6404L43.1616 18.3978C43.4853 17.8363 43.288 17.1179 42.7265 16.7942L39.4738 14.9225C38.6391 14.447 38.1231 13.5516 38.1231 12.5905V8.87736C38.1231 8.22985 37.597 7.7037 36.9495 7.7037H33.2314C32.2702 7.7037 31.3799 7.18772 30.8993 6.35809L29.0276 3.11046C28.8708 2.83729 28.6179 2.64507 28.3144 2.56413C28.0109 2.48319 27.6922 2.52366 27.419 2.68048L24.1764 4.54715C23.3467 5.02266 22.3148 5.02266 21.4851 4.54715L18.2425 2.68048C17.9693 2.52366 17.6506 2.47813 17.3471 2.55907C17.0436 2.64001 16.7907 2.83223 16.6338 3.1054L14.7622 6.35811C14.2867 7.19279 13.3913 7.70882 12.4301 7.70882H8.71202C8.06452 7.70882 7.53837 8.23492 7.53837 8.88247V12.6006C7.53837 13.5617 7.02239 14.4521 6.19275 14.9326L2.94512 16.8043C2.67196 16.9611 2.47973 17.214 2.39879 17.5176C2.31785 17.8211 2.35832 18.1398 2.51514 18.4129L4.38182 21.6556C4.85733 22.4852 4.85733 23.5172 4.38182 24.3468L2.51514 27.5894C2.35832 27.8626 2.31279 28.1813 2.39373 28.4848C2.47467 28.7883 2.6669 29.0413 2.94006 29.1981L6.19278 31.0698C7.02745 31.5453 7.54348 32.4406 7.54348 33.4018V37.1199C7.54348 37.7674 8.06958 38.2936 8.71714 38.2936H12.4352C13.3964 38.2936 14.2867 38.8095 14.7673 39.6392L16.639 42.8868C16.9627 43.4483 17.6811 43.6405 18.2426 43.3168L21.4852 41.4501C21.9202 41.2073 22.3856 41.0859 22.8511 41.0859L22.8509 41.0859Z" fill="#0E62CB" stroke="#0E62CB" stroke-width="1.25664"/>
<path d="M21.472 32.5488L16.9481 24.6571V22.7973H18.4561C19.0592 22.7973 19.587 22.7135 20.0394 22.546C20.5086 22.3617 20.8939 22.102 21.1955 21.7669C21.5139 21.4317 21.7317 21.0296 21.849 20.5605H16.9481V18.7006H21.8239C21.7233 18.265 21.5474 17.8796 21.2961 17.5445C21.0615 17.2094 20.7431 16.9497 20.341 16.7654C19.9556 16.5644 19.4865 16.4638 18.9336 16.4638H16.9481V14.604H28.283V16.4638H24.3371C24.622 16.7822 24.8565 17.1257 25.0409 17.4943C25.2419 17.8629 25.376 18.265 25.443 18.7006H28.283V20.5605H25.4932C25.3257 21.8004 24.8482 22.7722 24.0607 23.4759C23.2732 24.1628 22.2595 24.632 21.0196 24.8833L25.9456 32.5488H21.472Z" fill="#0E62CB"/>
</svg>
