<svg width="60" height="51" viewBox="0 0 60 51" fill="none" xmlns="http://www.w3.org/2000/svg">
<path d="M34.4927 45.6271C33.4554 42.7889 34.813 39.3673 33.9702 36.4986L30.4996 23.3445C30.2209 22.3062 29.543 21.4193 28.6135 20.8779C27.6841 20.337 26.579 20.1846 25.5378 20.4541C24.8919 20.6297 24.3006 20.9641 23.8173 21.4271C23.4249 20.1667 22.4088 19.1991 21.1306 18.8691C19.8523 18.5396 18.4947 18.8947 17.5419 19.8082C16.9744 18.8106 15.9903 18.1186 14.8591 17.9237C13.7279 17.7287 12.5691 18.0499 11.7001 18.8004L11.0242 16.2389L12.4118 16.2384C13.2735 16.2375 14.0999 15.8949 14.7096 15.2853C15.3192 14.6756 15.6623 13.8492 15.6632 12.987V3.82709C15.6623 2.9649 15.3192 2.13848 14.7096 1.52884C14.1 0.919202 13.2735 0.57665 12.4118 0.575684H3.2514C2.38921 0.576651 1.5628 0.919202 0.953152 1.52884C0.343517 2.13847 0.00096612 2.96489 0 3.82709V12.987C0.00241926 13.7825 0.296586 14.5493 0.827358 15.1416C1.35763 15.7338 2.08728 16.1112 2.87739 16.2007L5.81811 27.3444C4.45081 27.0507 3.02925 27.4944 2.0718 28.5134C1.1138 29.5328 0.759605 30.9785 1.13702 32.325L4.5452 44.086C5.00532 45.6739 5.88687 47.108 7.096 48.2358L8.80108 49.8257V49.8252C9.23896 50.2336 9.92503 50.2099 10.3329 49.772C10.7412 49.3341 10.7175 48.6481 10.2797 48.2402L8.57408 46.6503C7.65093 45.7896 6.97788 44.6947 6.6271 43.4827L3.21893 31.7217C3.04862 31.0975 3.2228 30.4298 3.67712 29.9693C4.13144 29.5082 4.79671 29.3243 5.42332 29.4859C6.04988 29.6475 6.54291 30.1304 6.71755 30.7535L8.21937 36.4453C8.47531 37.4324 8.37564 38.4784 7.93778 39.3992C7.82505 39.6764 7.83085 39.9875 7.95472 40.2599C8.07858 40.5323 8.3084 40.7418 8.59144 40.8396C8.87449 40.9368 9.18462 40.9136 9.44976 40.7752C9.7149 40.6368 9.91134 40.3954 9.99311 40.1075C10.5693 38.7785 10.6826 37.294 10.3149 35.8929L4.73675 14.7522C4.50451 13.8155 5.06722 12.8653 6.00051 12.6189C6.93384 12.3727 7.89225 12.9208 8.15261 13.8508C9.45464 18.7864 12.1756 29.1031 13.4975 34.0972V34.0967C13.6518 34.5655 14.1028 34.8704 14.5953 34.8399C14.9146 34.8089 15.2054 34.6415 15.3931 34.3812C15.5804 34.1204 15.6462 33.7914 15.5736 33.4784C15.4909 33.1537 12.5796 22.1503 12.5593 22.0468C12.3905 21.1604 12.9498 20.2987 13.8279 20.0926C14.7061 19.886 15.591 20.4086 15.8343 21.2771C16.2766 22.9472 18.0648 29.7436 18.5255 31.469H18.526C18.7137 32.0365 19.3248 32.3452 19.8928 32.1599C20.4298 31.9703 20.7361 31.4051 20.6021 30.8517C20.5135 30.543 18.5637 23.119 18.5182 22.9454C18.3339 22.0362 18.9169 21.1479 19.8246 20.9554C20.6984 20.787 21.5553 21.3183 21.7938 22.1756C21.8242 22.2932 22.6976 25.5968 22.6497 25.4178C22.7198 25.6782 25.3451 35.6481 25.366 35.7052V35.7057C25.5566 36.2529 26.1439 36.5533 26.6994 36.3879C27.2549 36.2224 27.582 35.649 27.4421 35.0868C27.3589 34.7825 24.751 24.8895 24.7245 24.7787C24.6268 24.2895 24.7245 23.7815 24.9969 23.3639C25.2698 22.9464 25.6955 22.6522 26.1828 22.5453C26.67 22.4379 27.1795 22.5264 27.6023 22.7911C27.9928 23.0543 28.2773 23.4476 28.405 23.901C28.4568 24.0964 31.8295 36.8371 31.9196 37.2297C32.4741 40.0712 31.324 43.6279 32.4334 46.3021C32.4533 46.364 33.6667 50.0915 33.6953 50.1621V50.1626C33.9169 50.7171 34.5449 50.988 35.1009 50.7693C35.6273 50.5506 35.9012 49.9671 35.7318 49.4223C35.696 49.3125 34.4927 45.6266 34.4927 45.6266L34.4927 45.6271ZM5.441 10.4987C4.68525 10.6976 4.00644 11.117 3.49018 11.7039C2.97393 12.2904 2.64444 13.0175 2.54332 13.7921C2.30722 13.5908 2.16981 13.2972 2.16738 12.9865V3.82661C2.16786 3.22811 2.65267 2.7433 3.25117 2.74282H12.4116C13.0096 2.7433 13.4944 3.22811 13.4954 3.82661V12.9865C13.4944 13.585 13.0096 14.0698 12.4116 14.0703H10.4521C10.3408 12.8946 9.72442 11.8253 8.76251 11.1398C7.80065 10.4542 6.58858 10.22 5.441 10.4987Z" fill="#0E62CB"/>
<path d="M34.9265 0.570312H25.7651C24.9029 0.57128 24.0765 0.91383 23.4668 1.52346C22.8577 2.1331 22.5146 2.95952 22.5137 3.82172V12.9831C22.5146 13.8448 22.8577 14.6712 23.4668 15.2809C24.0765 15.8905 24.9029 16.2336 25.7651 16.2345H34.9265C35.7887 16.2336 36.6151 15.8905 37.2247 15.2809C37.8339 14.6713 38.1769 13.8448 38.1779 12.9831V3.82172C38.1769 2.95953 37.8339 2.13311 37.2247 1.52346C36.6151 0.91383 35.7887 0.571279 34.9265 0.570312ZM36.0103 12.9825C36.0098 13.5805 35.525 14.0653 34.9265 14.0663H25.7651C25.1666 14.0653 24.6818 13.5805 24.6813 12.9825V3.82106C24.6818 3.22256 25.1666 2.73775 25.7651 2.73727H34.9265C35.525 2.73775 36.0098 3.22256 36.0103 3.82106V12.9825Z" fill="#F47523"/>
<path d="M56.7483 0.570312H48.2797C47.4175 0.57128 46.5911 0.91383 45.9815 1.52346C45.3718 2.1331 45.0293 2.95952 45.0283 3.82172V12.9831C45.0293 13.8448 45.3718 14.6712 45.9815 15.2809C46.5911 15.8905 47.4175 16.2336 48.2797 16.2345H56.7483C57.6105 16.2336 58.4369 15.8905 59.0465 15.2809C59.6557 14.6713 59.9987 13.8448 59.9997 12.9831V3.82172C59.9987 2.95953 59.6557 2.13311 59.0465 1.52346C58.4369 0.91383 57.6105 0.571279 56.7483 0.570312ZM57.8321 12.9825C57.8316 13.5805 57.3468 14.0653 56.7483 14.0663H48.2797C47.6812 14.0653 47.1964 13.5805 47.1959 12.9825V3.82106C47.1964 3.22256 47.6812 2.73775 48.2797 2.73727H56.7483C57.3468 2.73775 57.8316 3.22256 57.8321 3.82106V12.9825Z" fill="#F47523"/>
</svg>
