<svg width="37" height="37" viewBox="0 0 37 37" fill="none" xmlns="http://www.w3.org/2000/svg">
<path d="M22.6152 36C22.2448 36 21.8745 35.9034 21.5444 35.7102L18.964 34.2247C18.6741 34.0597 18.3159 34.0597 18.03 34.2247L15.4496 35.7102C15.1115 35.9034 14.7451 35.996 14.3829 35.996C13.6422 35.996 12.9176 35.6095 12.523 34.9252L11.0336 32.3408C10.8685 32.055 10.5586 31.8738 10.2245 31.8738H7.2697C6.09024 31.8738 5.12809 30.9117 5.12809 29.7322V26.7735C5.12809 26.4393 4.94694 26.1294 4.66112 25.9643L2.0727 24.4749C1.57755 24.1891 1.22331 23.7302 1.0744 23.1747C0.925459 22.6191 1.00194 22.0435 1.28775 21.5483L2.7732 18.9679C2.93825 18.6781 2.93825 18.3198 2.7732 18.034L1.28775 15.4536C1.00194 14.9584 0.925452 14.3787 1.0744 13.8272C1.22334 13.2717 1.57759 12.8128 2.0727 12.527L4.65707 11.0376C4.94289 10.8725 5.12404 10.5626 5.12404 10.2284V7.26969C5.12404 6.09024 6.08612 5.12808 7.26565 5.12808H10.2244C10.5585 5.12808 10.8685 4.94694 11.0335 4.66112L12.5229 2.0727C12.8088 1.57755 13.2677 1.22331 13.8232 1.0744C14.3787 0.925455 14.9544 1.00194 15.4495 1.28775L18.0299 2.7732C18.3198 2.93825 18.678 2.93825 18.9639 2.7732L21.5443 1.28775C22.5708 0.700017 23.8831 1.05024 24.4709 2.07273L25.9603 4.6571C26.1254 4.94291 26.4353 5.12407 26.7694 5.12407H29.7282C30.9076 5.12407 31.8698 6.08615 31.8698 7.26567V10.2244C31.8698 10.5586 32.0509 10.8685 32.3368 11.0335L34.9252 12.523C35.4203 12.8088 35.7746 13.2677 35.9275 13.8232C36.0765 14.3747 36 14.9544 35.7182 15.4496L34.2327 18.0259C34.0717 18.3198 34.0717 18.678 34.2368 18.9638L35.7222 21.5442C36.008 22.0394 36.0805 22.6191 35.9315 23.1706C35.7826 23.7221 35.4284 24.185 34.9292 24.4708L32.3408 25.9603C32.0509 26.1293 31.8698 26.4393 31.8698 26.7694V29.7242C31.8698 30.9036 30.9077 31.8658 29.7282 31.8658H26.7694C26.4353 31.8658 26.1253 32.0469 25.9603 32.3327L24.4709 34.9211C24.1851 35.4163 23.7262 35.7705 23.1706 35.9194C22.9895 35.9758 22.8044 36 22.6152 36ZM18.501 32.8923C18.8714 32.8923 19.2417 32.9889 19.5718 33.1781L22.1522 34.6635C22.3696 34.7883 22.6232 34.8245 22.8648 34.7561C23.1063 34.6917 23.3076 34.5387 23.4324 34.3214L24.9218 31.7329C25.3002 31.0687 26.0127 30.6581 26.7776 30.6581H29.7323C30.2476 30.6581 30.6663 30.2394 30.6663 29.7241V26.7654C30.6663 26.0045 31.0769 25.292 31.7412 24.9096L34.3296 23.4202C34.547 23.2954 34.6999 23.0941 34.7643 22.8526C34.8287 22.611 34.7965 22.3574 34.6717 22.14L33.1863 19.5596C32.8079 18.9035 32.8039 18.0863 33.1742 17.4261L33.1782 17.4181L34.6637 14.8377C34.9213 14.3908 34.7643 13.8192 34.3175 13.5616L31.7291 12.0722C31.0649 11.6938 30.6542 10.9813 30.6542 10.2164V7.26159C30.6542 6.74632 30.2356 6.32763 29.7203 6.32763H26.7615C25.9966 6.32763 25.2881 5.91702 24.9057 5.25682L23.4163 2.67245C23.2915 2.45507 23.0902 2.3021 22.8487 2.2377C22.6072 2.17329 22.3536 2.20549 22.1362 2.33028L19.5558 3.81573C18.8956 4.19413 18.0744 4.19413 17.4142 3.81573L14.8338 2.33028C14.6164 2.20549 14.3628 2.16926 14.1213 2.23367C13.8797 2.29808 13.6784 2.45105 13.5537 2.66842L12.0642 5.25684C11.6858 5.92106 10.9733 6.3317 10.2085 6.3317H7.2497C6.73443 6.3317 6.31574 6.75035 6.31574 7.26566V10.2244C6.31574 10.9893 5.90513 11.6978 5.24493 12.0802L2.66056 13.5696C2.44318 13.6944 2.29021 13.8957 2.2258 14.1372C2.16139 14.3787 2.1936 14.6324 2.31839 14.8497L3.80384 17.4301C4.18224 18.0903 4.18224 18.9115 3.80384 19.5717L2.31839 22.1521C2.1936 22.3695 2.15737 22.6231 2.22178 22.8647C2.28619 23.1062 2.43915 23.3075 2.65653 23.4323L5.24495 24.9217C5.90917 25.3001 6.31981 26.0126 6.31981 26.7775V29.7362C6.31981 30.2515 6.73846 30.6702 7.25377 30.6702H10.2125C10.9774 30.6702 11.6859 31.0808 12.0683 31.741L13.5577 34.3254C13.8154 34.7722 14.387 34.9252 14.8338 34.6675L17.4142 33.1821C17.7604 32.9889 18.1307 32.8923 18.501 32.8923Z" fill="black" stroke="black" stroke-width="0.5"/>
<path d="M24.081 12.0586L24.935 12.9126L12.9234 24.9243L12.0693 24.0703L24.081 12.0586Z" fill="black" stroke="black" stroke-width="0.5"/>
<path d="M13.9482 16.939C12.2937 16.939 10.9492 15.5944 10.9492 13.9399C10.9492 12.2854 12.2938 10.9409 13.9482 10.9409C15.6028 10.9409 16.9473 12.2855 16.9473 13.9399C16.9473 15.5945 15.6027 16.939 13.9482 16.939ZM13.9482 12.1486C12.962 12.1486 12.1569 12.9537 12.1569 13.9399C12.1569 14.9262 12.962 15.7313 13.9482 15.7313C14.9345 15.7313 15.7396 14.9262 15.7396 13.9399C15.7396 12.9537 14.9345 12.1486 13.9482 12.1486Z" fill="black" stroke="black" stroke-width="0.5"/>
<path d="M23.0586 26.0408C21.4041 26.0408 20.0596 24.6962 20.0596 23.0417C20.0596 21.3873 21.4041 20.0427 23.0586 20.0427C24.713 20.0427 26.0576 21.3873 26.0576 23.0417C26.0576 24.6962 24.713 26.0408 23.0586 26.0408ZM23.0586 21.2504C22.0724 21.2504 21.2672 22.0555 21.2672 23.0417C21.2672 24.028 22.0724 24.8331 23.0586 24.8331C24.0448 24.8331 24.85 24.028 24.85 23.0417C24.85 22.0555 24.0448 21.2504 23.0586 21.2504Z" fill="black" stroke="black" stroke-width="0.5"/>
</svg>
