<svg width="40" height="40" viewBox="0 0 40 40" fill="none" xmlns="http://www.w3.org/2000/svg">
<path d="M22.789 1.35062L24.495 3.49571C24.6874 3.74242 24.9299 3.90968 25.1975 3.99749C25.4693 4.0853 25.7662 4.09367 26.0672 4.01004L28.7058 3.2741C29.241 3.12356 29.772 3.09847 30.2905 3.19047C30.8132 3.28664 31.3066 3.49571 31.754 3.82187C32.2056 4.14802 32.5569 4.54945 32.8078 5.01359C33.0545 5.47773 33.1967 5.99624 33.2176 6.55655L33.3346 9.29542C33.3472 9.60067 33.4475 9.88083 33.6148 10.1108C33.7779 10.3408 34.0162 10.5206 34.3047 10.6293L36.8722 11.5827C37.3949 11.7792 37.8423 12.0719 38.2061 12.4483C38.574 12.8288 38.8458 13.2929 39.0173 13.8198C39.1887 14.3466 39.2389 14.8819 39.1678 15.4046C39.0967 15.9272 38.9044 16.429 38.5991 16.889L37.0854 19.1721C36.914 19.4313 36.8262 19.7157 36.8262 20C36.8262 20.2843 36.914 20.5687 37.0854 20.8279L38.5991 23.111C38.9044 23.571 39.0967 24.0728 39.1678 24.5954C39.2389 25.1181 39.1887 25.6534 39.0173 26.1802C38.8458 26.7071 38.574 27.1712 38.2061 27.5517C37.8423 27.9281 37.3949 28.2208 36.8722 28.4173L34.3047 29.3707C34.0162 29.4794 33.7779 29.6592 33.6148 29.8892C33.4475 30.1192 33.3472 30.3993 33.3346 30.7046L33.2176 33.4434C33.1967 34.0038 33.0545 34.5223 32.8078 34.9864C32.5569 35.4506 32.2056 35.852 31.754 36.1781C31.3066 36.5043 30.8132 36.7134 30.2905 36.8095C29.772 36.9015 29.241 36.8764 28.7058 36.7259L26.0672 35.99C25.7662 35.9063 25.4693 35.9147 25.1975 36.0025C24.9299 36.0903 24.6874 36.2576 24.495 36.5043L22.789 38.6494C22.4461 39.0843 22.0279 39.4188 21.5512 39.6488C21.0746 39.8829 20.5519 40 19.9999 40C19.448 40 18.9253 39.8829 18.4486 39.6488C17.9719 39.4188 17.5538 39.0843 17.2109 38.6494L15.5048 36.5043C15.3125 36.2576 15.07 36.0903 14.8023 36.0025C14.5305 35.9147 14.2337 35.9063 13.9326 35.99L11.2941 36.7259C10.7589 36.8764 10.2278 36.9015 9.70931 36.8095C9.18662 36.7134 8.69321 36.5043 8.24579 36.1781C7.79419 35.852 7.44295 35.4506 7.19206 34.9864C6.94535 34.5223 6.80318 34.0038 6.78227 33.4434L6.66519 30.7046C6.65265 30.3993 6.55229 30.1192 6.38503 29.8892C6.22196 29.6592 5.98361 29.4794 5.69509 29.3707L3.12766 28.4173C2.60498 28.2208 2.15756 27.9281 1.79377 27.5517C1.4258 27.1712 1.15401 26.7071 0.982567 26.1802C0.811127 25.6534 0.760949 25.1181 0.832034 24.5954C0.903119 24.0728 1.09547 23.571 1.40071 23.111L2.91441 20.8279C3.08585 20.5687 3.17366 20.2843 3.17366 20C3.17366 19.7157 3.08585 19.4313 2.91441 19.1721L1.40071 16.889C1.09547 16.429 0.903119 15.9272 0.832034 15.4046C0.760949 14.8819 0.811127 14.3466 0.982567 13.8198C1.15401 13.2929 1.4258 12.8288 1.79377 12.4483C2.15756 12.0719 2.60498 11.7792 3.12766 11.5827L5.69509 10.6293C5.98361 10.5206 6.22196 10.3408 6.38503 10.1108C6.55229 9.88083 6.65265 9.60067 6.66519 9.29542L6.78227 6.55655C6.80318 5.99624 6.94535 5.47773 7.19206 5.01359C7.44295 4.54945 7.79419 4.14802 8.24579 3.82187C8.69321 3.49571 9.18662 3.28664 9.70931 3.19047C10.2278 3.09847 10.7589 3.12356 11.2941 3.2741L13.9326 4.01004C14.2337 4.09367 14.5305 4.0853 14.8023 3.99749C15.07 3.90968 15.3125 3.74242 15.5048 3.49571L17.2109 1.35062C17.5538 0.915743 17.9719 0.581225 18.4486 0.351244C18.9253 0.117081 19.448 0 19.9999 0C20.5519 0 21.0746 0.117081 21.5512 0.351244C22.0279 0.581225 22.4461 0.915743 22.789 1.35062ZM12.9081 20.807C12.5109 20.3931 12.5234 19.7407 12.9332 19.3435C13.3472 18.9463 14.0037 18.9588 14.3967 19.3728L17.7461 22.8685L25.6156 14.9195C26.0171 14.5139 26.6736 14.5139 27.0792 14.9153C27.4806 15.3167 27.4848 15.9732 27.0792 16.3788L18.4528 25.0972C18.0388 25.4945 17.3865 25.4819 16.9893 25.0679L12.9081 20.807ZM19.9999 7.96989C23.32 7.96989 26.3265 9.31633 28.505 11.4949C30.6836 13.6734 32.03 16.6799 32.03 20C32.03 23.3201 30.6836 26.3266 28.505 28.5051C26.3265 30.6837 23.32 32.0301 19.9999 32.0301C16.6798 32.0301 13.6733 30.6837 11.4948 28.5051C9.31625 26.3266 7.96981 23.3201 7.96981 20C7.96981 16.6799 9.31625 13.6734 11.4948 11.4949C13.6733 9.31633 16.6798 7.96989 19.9999 7.96989ZM27.0373 12.9626C25.2351 11.1604 22.7471 10.0481 19.9999 10.0481C17.2527 10.0481 14.7647 11.1604 12.9625 12.9626C11.1603 14.7648 10.048 17.2528 10.048 20C10.048 22.7472 11.1603 25.2352 12.9625 27.0374C14.7647 28.8396 17.2527 29.9519 19.9999 29.9519C22.7471 29.9519 25.2351 28.8396 27.0373 27.0374C28.8396 25.2352 29.9518 22.7472 29.9518 20C29.9518 17.2528 28.8396 14.7648 27.0373 12.9626ZM22.8726 4.78779L21.1707 2.63851C21.0202 2.45034 20.8446 2.30817 20.6522 2.212C20.4641 2.12419 20.2424 2.07401 19.9999 2.07401C19.7574 2.07401 19.5358 2.12419 19.3476 2.212C19.1553 2.30817 18.9796 2.45034 18.8291 2.63851L17.1272 4.78779C16.6756 5.35647 16.0902 5.75789 15.4421 5.96697C14.7898 6.18022 14.0831 6.19695 13.3806 6.00042L10.7421 5.26866C10.508 5.20176 10.2822 5.18921 10.0731 5.22684C9.8682 5.26448 9.65913 5.35229 9.4626 5.49864C9.26607 5.64081 9.11972 5.80807 9.01518 5.99624C8.91483 6.1844 8.85629 6.40184 8.84792 6.636L8.73084 9.37487C8.70157 10.1066 8.46323 10.7757 8.06599 11.3276C7.66457 11.8796 7.10007 12.3103 6.4143 12.5653L3.84688 13.5229C3.62526 13.6065 3.43291 13.7278 3.28656 13.8825C3.14021 14.0372 3.02731 14.2296 2.95204 14.4595C2.87678 14.6895 2.85169 14.9153 2.88096 15.1286C2.91023 15.3377 2.99386 15.5467 3.12766 15.7474L4.64136 18.0305C5.04696 18.6368 5.24767 19.3184 5.24767 20C5.24767 20.6816 5.04696 21.3632 4.64136 21.9695L3.12766 24.2526C2.99386 24.4533 2.91023 24.6623 2.88096 24.8714C2.85169 25.0847 2.87678 25.3105 2.95204 25.5405C3.02731 25.7704 3.14021 25.9628 3.28656 26.1175C3.43291 26.2722 3.62526 26.3935 3.84688 26.4771L6.4143 27.4347C7.10007 27.6897 7.66457 28.1204 8.06599 28.6724C8.46323 29.2243 8.70157 29.8934 8.73084 30.6251L8.84792 33.364C8.85629 33.5982 8.91483 33.8156 9.01518 34.0038C9.11972 34.1919 9.26607 34.3592 9.4626 34.5014C9.65913 34.6477 9.8682 34.7355 10.0731 34.7732C10.2822 34.8108 10.508 34.7982 10.7421 34.7313L13.3806 33.9996C14.0831 33.8031 14.794 33.8198 15.4421 34.033C16.0902 34.2421 16.6756 34.6435 17.1272 35.2122L18.8291 37.3615C18.9796 37.5497 19.1553 37.6918 19.3476 37.788C19.5358 37.8758 19.7574 37.926 19.9999 37.926C20.2424 37.926 20.4641 37.8758 20.6522 37.788C20.8446 37.6918 21.0202 37.5497 21.1707 37.3615L22.8726 35.2122C23.3242 34.6435 23.9096 34.2421 24.5577 34.033C25.21 33.8198 25.9167 33.8031 26.6192 33.9996L29.2577 34.7313C29.4919 34.7982 29.7177 34.8108 29.9267 34.7732C30.1316 34.7355 30.3407 34.6477 30.5372 34.5014C30.7338 34.3592 30.8801 34.1919 30.9847 34.0038C31.085 33.8156 31.1436 33.5982 31.1519 33.364L31.269 30.6251C31.2983 29.8934 31.5366 29.2243 31.9339 28.6724C32.3353 28.1204 32.8998 27.6897 33.5855 27.4347L36.153 26.4771C36.3746 26.3935 36.5669 26.2722 36.7133 26.1175C36.8596 25.9628 36.9725 25.7704 37.0478 25.5405C37.1231 25.3105 37.1482 25.0847 37.1189 24.8714C37.0896 24.6623 37.006 24.4533 36.8722 24.2526L35.3585 21.9695C34.9529 21.3632 34.7522 20.6816 34.7522 20C34.7522 19.3184 34.9529 18.6368 35.3585 18.0305L36.8722 15.7474C37.006 15.5467 37.0896 15.3377 37.1189 15.1286C37.1482 14.9153 37.1231 14.6895 37.0478 14.4595C36.9725 14.2296 36.8596 14.0372 36.7133 13.8825C36.5669 13.7278 36.3746 13.6065 36.153 13.5229L33.5855 12.5653C32.8998 12.3103 32.3353 11.8796 31.9339 11.3276C31.5366 10.7757 31.2983 10.1066 31.269 9.37487L31.1519 6.636C31.1436 6.40184 31.085 6.1844 30.9847 5.99624C30.8801 5.80807 30.7338 5.64081 30.5372 5.49864C30.3407 5.35229 30.1316 5.26448 29.9267 5.22684C29.7177 5.18921 29.4919 5.20176 29.2577 5.26866L26.6192 6.00042C25.9167 6.19695 25.2059 6.18022 24.5577 5.96697C23.9096 5.75789 23.3242 5.35647 22.8726 4.78779Z" fill="#0E62CB"/>
</svg>
