<svg width="31" height="31" viewBox="0 0 31 31" fill="none" xmlns="http://www.w3.org/2000/svg">
<circle cx="15.5176" cy="15.8457" r="14" stroke="white" stroke-width="2"/>
<path d="M22.8502 20.3994C22.2776 19.8225 20.8907 18.9806 20.2179 18.6413C19.3417 18.2 19.2696 18.1639 18.5808 18.6755C18.1214 19.017 17.816 19.322 17.2784 19.2074C16.7408 19.0927 15.5725 18.4462 14.5495 17.4266C13.5265 16.4069 12.8425 15.2048 12.7274 14.669C12.6124 14.1332 12.9225 13.8314 13.2608 13.371C13.7374 12.722 13.7014 12.6138 13.2939 11.7376C12.9763 11.0562 12.1098 9.68242 11.5307 9.11273C10.9112 8.50086 10.9112 8.60903 10.512 8.77489C10.187 8.91161 9.87527 9.0778 9.58062 9.27138C9.00368 9.65466 8.68348 9.97303 8.45955 10.4515C8.23563 10.93 8.13503 12.0517 9.29143 14.1523C10.4478 16.2529 11.2591 17.327 12.9384 19.0015C14.6176 20.6759 15.9089 21.5763 17.7966 22.6349C20.1317 23.9426 21.0274 23.6877 21.5073 23.4642C21.9873 23.2406 22.3071 22.9233 22.6912 22.3464C22.8852 22.0523 23.0518 21.7409 23.1888 21.4162C23.355 21.0185 23.4632 21.0185 22.8502 20.3994Z" stroke="white" stroke-width="2" stroke-miterlimit="10"/>
</svg>
