<svg width="41" height="71" viewBox="0 0 41 71" fill="none" xmlns="http://www.w3.org/2000/svg">
<path d="M40.3035 63.1528C40.3035 67.2539 36.9856 70.5703 32.8737 70.5703H7.4298C3.32915 70.5703 0 67.246 0 63.1543V7.98637C0 3.88571 3.3179 0.570312 7.4298 0.570312H32.8737C36.9734 0.570312 40.3035 3.89796 40.3035 7.98787V63.1528ZM8.48581 2.69108H7.43063C4.49023 2.69108 2.12197 5.05734 2.12197 7.98599V63.1539C2.12197 66.0738 4.50036 68.4488 7.43063 68.4488H32.8746C35.815 68.4488 38.1832 66.0815 38.1832 63.1524V7.98699C38.1832 5.06897 35.8028 2.69058 32.8746 2.69058H31.8194V5.34247C31.8194 7.97574 29.6777 10.115 27.0396 10.115H13.2657C10.6256 10.115 8.48596 7.97874 8.48596 5.34247L8.48581 2.69108ZM10.607 2.69108V5.34297C10.607 6.80686 11.7964 7.99437 13.2657 7.99437H27.0396C28.5068 7.99437 29.6983 6.80393 29.6983 5.34297V2.69108H10.607ZM20.1524 49.3589C13.1231 49.3589 7.4248 43.6606 7.4248 36.6313C7.4248 29.6025 13.1226 23.9037 20.1524 23.9037C27.1822 23.9037 32.88 29.602 32.88 36.6313C32.88 43.6606 27.1822 49.3589 20.1524 49.3589ZM20.1524 47.2373C26.0098 47.2373 30.7585 42.4887 30.7585 36.6312C30.7585 30.7737 26.0099 26.0251 20.1524 26.0251C14.2949 26.0251 9.54632 30.7737 9.54632 36.6312C9.54632 42.4887 14.2949 47.2373 20.1524 47.2373ZM22.584 33.7597C22.9986 33.3456 23.67 33.3456 24.084 33.7597C24.4986 34.1737 24.4986 34.8456 24.084 35.2597L19.8418 39.502C19.4277 39.9165 18.7558 39.9165 18.3418 39.502L16.2206 37.3808C15.8061 36.9668 15.8061 36.2949 16.2206 35.8808C16.6347 35.4667 17.3061 35.4667 17.7206 35.8808L19.0918 37.2525L22.584 33.7597Z" fill="#0E62CB"/>
</svg>
