<svg width="134" height="65" viewBox="0 0 134 65" fill="none" xmlns="http://www.w3.org/2000/svg">
<path d="M59.6397 30.1021C60.2197 27.4095 61.8501 25.0352 64.2935 23.6245C64.6265 23.432 64.7404 23.0063 64.5485 22.6726L57.1316 9.82714C56.9397 9.49415 56.5134 9.37948 56.1797 9.57207L56.1341 9.59853C53.7238 10.99 50.8629 11.2782 48.2754 10.4498C54.5934 14.8992 58.9208 21.9875 59.6397 30.1021Z" fill="white"/>
<path d="M32.7928 5.54093C36.7931 5.54093 40.589 6.42376 44.0064 7.99315C41.9901 6.16795 40.8073 3.53784 40.8073 0.750431C40.8073 0.335847 40.4714 -8.32787e-05 40.0568 -8.32787e-05H25.3318C24.9172 -8.32787e-05 24.5812 0.335847 24.5812 0.750431V0.859223C24.5812 3.62679 23.4139 6.23999 21.4219 8.06445C24.8797 6.44875 28.7315 5.54093 32.7928 5.54093Z" fill="white"/>
<path d="M64.2927 41.3754C61.8501 39.9648 60.2189 37.5905 59.639 34.8979C58.92 43.0124 54.5934 50.1 48.2754 54.5502C50.8629 53.7225 53.7238 54.0091 56.1334 55.4014L56.1797 55.4278C56.5134 55.6204 56.939 55.5065 57.1309 55.1728L64.5478 42.3273C64.7404 41.9936 64.6265 41.568 64.2927 41.3754Z" fill="white"/>
<path d="M32.7928 59.4597C28.7315 59.4597 24.8797 58.5519 21.4219 56.9355C23.4147 58.7614 24.5812 61.3731 24.5812 64.1407V64.2502C24.5812 64.6641 24.9172 65 25.3318 65H40.0568C40.4714 65 40.8073 64.6641 40.8073 64.2502C40.8073 61.4628 41.9901 58.8327 44.0064 57.0068C40.589 58.5769 36.7931 59.4597 32.7928 59.4597Z" fill="white"/>
<path d="M1.10291 23.6293C3.61099 25.0774 5.33108 27.5105 5.9331 30.2759C6.60349 22.1099 10.9265 14.9672 17.2636 10.4839C14.6607 11.3315 11.7799 11.0573 9.35195 9.65548L9.21596 9.57683C8.87856 9.38203 8.44707 9.49744 8.25301 9.83484L0.844162 22.6656C0.650101 23.003 0.765508 23.4345 1.10291 23.6293Z" fill="white"/>
<path d="M5.93288 34.7246C5.33085 37.49 3.61077 39.9231 1.10269 41.3712C0.765286 41.566 0.649879 41.9975 0.844675 42.3349L8.25205 55.1656C8.44685 55.503 8.87907 55.6185 9.21647 55.4244L9.35173 55.3457C11.7797 53.9439 14.6605 53.6698 17.2634 54.5166C10.9255 50.0333 6.60401 42.8906 5.93288 34.7246Z" fill="white"/>
<path d="M32.7873 15.9777C40.7379 15.9777 47.3727 21.5952 48.9502 29.0768H16.6244C18.2019 21.5952 24.8367 15.9777 32.7873 15.9777ZM32.7873 9.12972C19.8801 9.12972 9.41699 19.5928 9.41699 32.5008C9.41699 45.408 19.8801 55.8711 32.7873 55.8711C40.2042 55.8711 46.8104 52.4118 51.0915 47.023L45.7225 42.7625C42.6954 46.5731 38.0314 49.0231 32.7873 49.0231C24.8367 49.0231 18.2019 43.4056 16.6244 35.9248H48.9502H52.7557H55.9062C56.0702 34.8067 56.1576 33.6644 56.1576 32.5008C56.1576 19.5928 45.6945 9.12972 32.7873 9.12972Z" fill="white"/>
<path d="M84.2122 32.8942C86.7107 32.8942 88.7094 31.51 88.7094 29.3577C88.7094 27.2436 86.7107 25.8984 84.2122 25.8984H79.4077V32.8942H84.2122ZM79.4077 38.7366V46.3086H72.9111V20.1707H84.3658C90.8242 20.1707 95.1671 23.7072 95.1671 29.3577C95.1671 33.0088 93.2838 35.8925 90.17 37.4685L96.8974 46.3086H89.0556L83.4441 38.7366H79.4077Z" fill="white"/>
<path d="M106.306 46.3091H99.8105V20.1712H106.306V46.3091Z" fill="white"/>
<path d="M121.809 33.9703C124.692 33.9703 126.537 32.3171 126.537 29.7422C126.537 27.3973 124.692 25.8984 121.809 25.8984H117.927V33.9703H121.809ZM121.963 20.1707C128.767 20.1707 133.033 23.8608 133.033 29.7422C133.033 35.8536 128.575 39.6591 121.426 39.6591H117.927V46.3086H111.431V20.1707H121.963Z" fill="white"/>
</svg>
