<svg width="48" height="44" viewBox="0 0 48 44" fill="none" xmlns="http://www.w3.org/2000/svg">
<path d="M22.8761 26.9147C22.8761 27.3666 22.6966 27.8 22.3771 28.1196C22.0575 28.4391 21.6241 28.6186 21.1722 28.6186H1.82792C1.37602 28.6186 0.942625 28.4391 0.623083 28.1196C0.30354 27.8 0.124023 27.3666 0.124023 26.9147C0.124023 26.4628 0.30354 26.0294 0.623083 25.7099C0.942625 25.3903 1.37602 25.2108 1.82792 25.2108H21.1722C21.6241 25.2108 22.0575 25.3903 22.3771 25.7099C22.6966 26.0294 22.8761 26.4628 22.8761 26.9147ZM21.1722 32.0264H6.9396C6.4877 32.0264 6.05431 32.2059 5.73477 32.5255C5.41522 32.845 5.23571 33.2784 5.23571 33.7303C5.23571 34.1822 5.41522 34.6156 5.73477 34.9351C6.05431 35.2547 6.4877 35.4342 6.9396 35.4342H21.1722C21.6241 35.4342 22.0575 35.2547 22.3771 34.9351C22.6966 34.6156 22.8761 34.1822 22.8761 33.7303C22.8761 33.2784 22.6966 32.845 22.3771 32.5255C22.0575 32.2059 21.6241 32.0264 21.1722 32.0264ZM21.1722 38.842H12.0513C11.5994 38.842 11.166 39.0215 10.8464 39.341C10.5269 39.6606 10.3474 40.094 10.3474 40.5459C10.3474 40.9978 10.5269 41.4312 10.8464 41.7507C11.166 42.0703 11.5994 42.2498 12.0513 42.2498H21.1722C21.6241 42.2498 22.0575 42.0703 22.3771 41.7507C22.6966 41.4312 22.8761 40.9978 22.8761 40.5459C22.8761 40.094 22.6966 39.6606 22.3771 39.341C22.0575 39.0215 21.6241 38.842 21.1722 38.842ZM30.2029 26.4615L37.0559 19.6169C37.3663 19.2956 37.5381 18.8652 37.5342 18.4184C37.5303 17.9717 37.3511 17.5443 37.0352 17.2284C36.7193 16.9125 36.2919 16.7333 35.8452 16.7294C35.3984 16.7255 34.968 16.8973 34.6466 17.2076L27.797 24.0471C27.6342 24.2042 27.5044 24.3923 27.4151 24.6001C27.3258 24.808 27.2788 25.0316 27.2769 25.2579C27.2749 25.4841 27.318 25.7085 27.4037 25.9179C27.4894 26.1273 27.6159 26.3175 27.7759 26.4775C27.9358 26.6375 28.1261 26.764 28.3355 26.8497C28.5449 26.9353 28.7693 26.9785 28.9955 26.9765C29.2217 26.9745 29.4453 26.9275 29.6532 26.8382C29.8611 26.7489 30.0491 26.6191 30.2063 26.4564L30.2029 26.4615ZM30.7021 6.58726V3.40779H32.314C32.7659 3.40779 33.1993 3.22827 33.5188 2.90873C33.8384 2.58919 34.0179 2.1558 34.0179 1.70389C34.0179 1.25199 33.8384 0.818602 33.5188 0.499059C33.1993 0.179517 32.7659 0 32.314 0H25.6859C25.234 0 24.8006 0.179517 24.481 0.499059C24.1615 0.818602 23.982 1.25199 23.982 1.70389C23.982 2.1558 24.1615 2.58919 24.481 2.90873C24.8006 3.22827 25.234 3.40779 25.6859 3.40779H27.2977V6.58385C23.3495 6.93278 19.6146 8.52843 16.6331 11.1401L14.3941 8.90114C14.0746 8.5812 13.6411 8.40128 13.189 8.40096C12.7368 8.40064 12.3031 8.57995 11.9831 8.89944C11.6632 9.21894 11.4833 9.65244 11.4829 10.1046C11.4826 10.5567 11.6619 10.9905 11.9814 11.3105L14.2919 13.6192C12.8841 15.3992 11.8109 17.4198 11.1244 19.5829C11.0036 20.0095 11.0539 20.4663 11.2645 20.8565C11.4751 21.2466 11.8295 21.5393 12.2524 21.6723C12.6754 21.8054 13.1335 21.7684 13.5296 21.5691C13.9256 21.3699 14.2284 21.0241 14.3737 20.6052C15.3502 17.4963 17.295 14.781 19.9243 12.8559C22.5535 10.9308 25.7293 9.89673 28.988 9.90474H29.0016H29.0153C33.0846 9.9061 36.9868 11.5239 39.8633 14.4024C42.7398 17.2808 44.3551 21.1841 44.3537 25.2534C44.3524 29.3228 42.7345 33.2249 39.8561 36.1015C36.9776 38.978 33.0744 40.5932 29.005 40.5919C28.7086 40.5919 28.4104 40.5765 28.0662 40.5595C27.6185 40.5438 27.1826 40.705 26.8528 41.0082C26.5231 41.3115 26.326 41.7324 26.3044 42.1799C26.2877 42.6339 26.4509 43.0761 26.7585 43.4105C27.066 43.7449 27.4931 43.9443 27.9469 43.9656C28.2996 43.9826 28.654 43.9997 29.005 43.9997C33.8474 44.0283 38.5129 42.1816 42.024 38.8466C45.535 35.5117 47.619 30.9472 47.8393 26.1098C48.0595 21.2723 46.399 16.5374 43.2056 12.8971C40.0122 9.2568 35.5339 6.99374 30.7089 6.58214L30.7021 6.58726Z" fill="#0E62CB"/>
</svg>
