<svg width="80" height="78" viewBox="0 0 80 78" fill="none" xmlns="http://www.w3.org/2000/svg">
<path fill-rule="evenodd" clip-rule="evenodd" d="M16.2837 2.66774C15.9745 2.67685 15.705 2.88106 15.6127 3.17636L12.1333 14.3086H1.06906C0.75807 14.3086 0.481748 14.507 0.38208 14.8016C0.282378 15.0961 0.381574 15.4215 0.628544 15.6103L9.60561 22.4691L6.19383 33.6531L6.19409 33.6534C6.10223 33.9548 6.21534 34.281 6.47395 34.4606C6.73282 34.6405 7.07796 34.6327 7.32826 34.4414L16.3053 27.5839L25.2824 34.4414C25.5332 34.6329 25.8788 34.6405 26.1377 34.4599C26.3965 34.2794 26.5089 33.9523 26.4158 33.6509L22.9423 22.4137L31.9776 15.6138V15.6136C32.2271 15.4256 32.3283 15.0989 32.2289 14.8028C32.1292 14.5067 31.8514 14.3076 31.5389 14.3086L20.4494 14.3468L16.9984 3.17893L16.9986 3.17868C16.9022 2.86718 16.6102 2.65842 16.2843 2.66778L16.2837 2.66774Z" fill="#F6AE2D"/>
<path d="M46.7811 29.1289V25.2675H37.0969V22.019L46.4133 8.16705H50.765V21.5287H53.4006V25.2675H50.765V29.1289H46.7811ZM46.7811 14.143H46.5359L41.5406 21.5287H46.7811V14.143ZM58.8927 29.3128C58.1572 29.3128 57.5238 29.0574 56.9926 28.5466C56.4819 28.0154 56.2265 27.3821 56.2265 26.6466C56.2265 25.9111 56.4819 25.2879 56.9926 24.7772C57.5238 24.2664 58.1572 24.011 58.8927 24.011C59.6282 24.011 60.2513 24.2664 60.7621 24.7772C61.2729 25.2879 61.5283 25.9111 61.5283 26.6466C61.5283 27.3821 61.2729 28.0154 60.7621 28.5466C60.2513 29.0574 59.6282 29.3128 58.8927 29.3128ZM65.2228 27.7498L73.9569 12.151L73.8649 11.9672H64.2115L64.2727 8.16705H78.4925V12.151L68.5938 29.6192L65.2228 27.7498Z" fill="#004A8F"/>
<path d="M20.9977 55.2767C20.345 55.2767 19.732 55.1625 19.1586 54.934C18.5898 54.7009 18.0887 54.3606 17.6551 53.9131C17.2262 53.4656 16.8906 52.9178 16.6482 52.2698C16.4058 51.6171 16.2845 50.8712 16.2845 50.0321C16.2845 48.9319 16.4897 47.9926 16.8999 47.214C17.3101 46.4308 17.8719 45.8318 18.5852 45.4169C19.2984 44.9973 20.1026 44.7876 20.9977 44.7876C22.2377 44.7876 23.219 45.0766 23.9416 45.6547C24.6689 46.2281 25.1607 47.0346 25.4171 48.0741L23.6969 48.3469C23.5057 47.7501 23.1934 47.2746 22.7598 46.9203C22.3263 46.5614 21.7739 46.3819 21.1025 46.3819C20.4266 46.3726 19.8648 46.5194 19.4173 46.8224C18.9698 47.1255 18.6318 47.552 18.4033 48.1021C18.1796 48.6522 18.0677 49.2955 18.0677 50.0321C18.0677 50.7687 18.1796 51.4097 18.4033 51.9551C18.6271 52.4959 18.9628 52.9178 19.4103 53.2208C19.8625 53.5238 20.4266 53.68 21.1025 53.6893C21.6107 53.694 22.0559 53.6031 22.4382 53.4166C22.8204 53.2255 23.1328 52.9388 23.3752 52.5565C23.6176 52.1696 23.7808 51.6871 23.8647 51.109H22.0885V49.7874H25.6548C25.6642 49.862 25.6711 49.9715 25.6758 50.116C25.6805 50.2605 25.6828 50.3468 25.6828 50.3748C25.6828 51.3258 25.494 52.1719 25.1164 52.9131C24.7434 53.6497 24.2073 54.2278 23.5081 54.6473C22.8088 55.0669 21.972 55.2767 20.9977 55.2767ZM30.4228 55.2767C29.6676 55.2767 29.0079 55.1065 28.4438 54.7662C27.8798 54.4259 27.4415 53.9574 27.1292 53.3607C26.8215 52.7593 26.6677 52.0693 26.6677 51.2908C26.6677 50.4983 26.8262 49.8037 27.1432 49.207C27.4602 48.6103 27.9007 48.1441 28.4648 47.8084C29.0289 47.4728 29.6816 47.3049 30.4228 47.3049C31.1827 47.3049 31.8447 47.4751 32.4087 47.8154C32.9728 48.1557 33.411 48.6266 33.7234 49.2279C34.0357 49.8247 34.1919 50.5123 34.1919 51.2908C34.1919 52.074 34.0334 52.7663 33.7164 53.3677C33.404 53.9644 32.9658 54.4329 32.4017 54.7732C31.8377 55.1089 31.178 55.2767 30.4228 55.2767ZM30.4228 53.6963C31.0941 53.6963 31.5929 53.4725 31.9192 53.025C32.2456 52.5775 32.4087 51.9994 32.4087 51.2908C32.4087 50.5589 32.2432 49.9762 31.9122 49.5426C31.5813 49.1044 31.0848 48.8853 30.4228 48.8853C29.9706 48.8853 29.5976 48.9879 29.304 49.193C29.0149 49.3934 28.8005 49.6755 28.6606 50.0391C28.5208 50.3981 28.4508 50.8153 28.4508 51.2908C28.4508 52.0227 28.6163 52.6078 28.9473 53.046C29.283 53.4795 29.7748 53.6963 30.4228 53.6963ZM39.0681 55.2767C38.3129 55.2767 37.6533 55.1065 37.0892 54.7662C36.5251 54.4259 36.0869 53.9574 35.7745 53.3607C35.4669 52.7593 35.313 52.0693 35.313 51.2908C35.313 50.4983 35.4715 49.8037 35.7885 49.207C36.1055 48.6103 36.5461 48.1441 37.1102 47.8084C37.6742 47.4728 38.3269 47.3049 39.0681 47.3049C39.828 47.3049 40.49 47.4751 41.0541 47.8154C41.6181 48.1557 42.0564 48.6266 42.3687 49.2279C42.681 49.8247 42.8372 50.5123 42.8372 51.2908C42.8372 52.074 42.6787 52.7663 42.3617 53.3677C42.0494 53.9644 41.6112 54.4329 41.0471 54.7732C40.483 55.1089 39.8233 55.2767 39.0681 55.2767ZM39.0681 53.6963C39.7394 53.6963 40.2382 53.4725 40.5646 53.025C40.8909 52.5775 41.0541 51.9994 41.0541 51.2908C41.0541 50.5589 40.8886 49.9762 40.5576 49.5426C40.2266 49.1044 39.7301 48.8853 39.0681 48.8853C38.6159 48.8853 38.243 48.9879 37.9493 49.193C37.6603 49.3934 37.4458 49.6755 37.306 50.0391C37.1661 50.3981 37.0962 50.8153 37.0962 51.2908C37.0962 52.0227 37.2617 52.6078 37.5927 53.046C37.9283 53.4795 38.4201 53.6963 39.0681 53.6963ZM47.5526 58.6332C47.1331 58.6332 46.7298 58.5679 46.3429 58.4374C45.9606 58.3069 45.6156 58.1181 45.308 57.871C45.0003 57.6286 44.7485 57.3349 44.5527 56.9899L46.1051 56.2207C46.2496 56.4957 46.4524 56.6985 46.7135 56.8291C46.9792 56.9643 47.2613 57.0319 47.5596 57.0319C47.9093 57.0319 48.2216 56.9689 48.4966 56.8431C48.7717 56.7218 48.9838 56.54 49.133 56.2976C49.2868 56.0599 49.3591 55.7615 49.3498 55.4025V53.2558H49.5595V47.5147H51.035V55.4305C51.035 55.6217 51.0257 55.8035 51.007 55.976C50.9931 56.1531 50.9674 56.3256 50.9301 56.4934C50.8182 56.9829 50.6038 57.3838 50.2868 57.6962C49.9698 58.0132 49.5759 58.2486 49.105 58.4024C48.6388 58.5563 48.1214 58.6332 47.5526 58.6332ZM47.4058 55.2767C46.7112 55.2767 46.1051 55.1019 45.5877 54.7522C45.0702 54.4026 44.6693 53.9271 44.3849 53.3257C44.1005 52.7243 43.9584 52.046 43.9584 51.2908C43.9584 50.5263 44.1005 49.8456 44.3849 49.2489C44.6739 48.6476 45.0819 48.1744 45.6086 47.8294C46.1354 47.4798 46.7555 47.3049 47.4687 47.3049C48.1866 47.3049 48.788 47.4798 49.2728 47.8294C49.7623 48.1744 50.1329 48.6476 50.3847 49.2489C50.6364 49.8503 50.7623 50.5309 50.7623 51.2908C50.7623 52.0414 50.6364 52.7197 50.3847 53.3257C50.1329 53.9271 49.7577 54.4026 49.2589 54.7522C48.76 55.1019 48.1423 55.2767 47.4058 55.2767ZM47.6645 53.7662C48.1167 53.7662 48.4803 53.6637 48.7554 53.4586C49.0351 53.2488 49.2379 52.9574 49.3637 52.5845C49.4943 52.2115 49.5595 51.7803 49.5595 51.2908C49.5595 50.7967 49.4943 50.3654 49.3637 49.9972C49.2379 49.6242 49.0397 49.3352 48.7694 49.13C48.499 48.9203 48.1493 48.8154 47.7205 48.8154C47.2683 48.8154 46.8953 48.9273 46.6016 49.151C46.3079 49.3701 46.0911 49.6685 45.9513 50.0461C45.8114 50.419 45.7415 50.8339 45.7415 51.2908C45.7415 51.7523 45.8091 52.1719 45.9443 52.5495C46.0841 52.9225 46.2963 53.2185 46.5806 53.4376C46.865 53.6567 47.2263 53.7662 47.6645 53.7662ZM53.1358 55.0669V44.7876H54.821V55.0669H53.1358ZM60.3491 55.2767C59.5846 55.2767 58.9133 55.1112 58.3352 54.7802C57.7572 54.4492 57.305 53.99 56.9786 53.4026C56.657 52.8152 56.4961 52.1393 56.4961 51.3747C56.4961 50.5496 56.6546 49.834 56.9716 49.2279C57.2886 48.6172 57.7292 48.1441 58.2933 47.8084C58.8574 47.4728 59.51 47.3049 60.2512 47.3049C61.0344 47.3049 61.6987 47.4891 62.2442 47.8574C62.7943 48.221 63.2022 48.7361 63.4679 49.4028C63.7336 50.0694 63.8339 50.8549 63.7686 51.7593H62.0973V51.144C62.0927 50.3235 61.9481 49.7244 61.6638 49.3468C61.3794 48.9692 60.9319 48.7804 60.3212 48.7804C59.6312 48.7804 59.1184 48.9949 58.7828 49.4237C58.4471 49.848 58.2793 50.4703 58.2793 51.2908C58.2793 52.0554 58.4471 52.6474 58.7828 53.067C59.1184 53.4865 59.6079 53.6963 60.2512 53.6963C60.6661 53.6963 61.0228 53.6054 61.3211 53.4236C61.6242 53.2371 61.8572 52.9691 62.0204 52.6194L63.6847 53.1229C63.3956 53.8035 62.9481 54.3327 62.3421 54.7103C61.7407 55.0879 61.0764 55.2767 60.3491 55.2767ZM57.7478 51.7593V50.4866H62.9435V51.7593H57.7478ZM14.9865 73.0669V62.9973H19.1472C19.2451 62.9973 19.371 63.002 19.5248 63.0113C19.6787 63.016 19.8208 63.03 19.9514 63.0533C20.5341 63.1419 21.0143 63.3353 21.3919 63.6337C21.7741 63.932 22.0562 64.3096 22.238 64.7665C22.4245 65.2187 22.5177 65.7222 22.5177 66.2769C22.5177 67.0974 22.3103 67.8037 21.8954 68.3957C21.4804 68.9831 20.8441 69.3468 19.9863 69.4866L19.2661 69.5495H16.6718V73.0669H14.9865ZM20.7695 73.0669L18.7836 68.9691L20.4968 68.5915L22.6785 73.0669H20.7695ZM16.6718 67.9762H19.0773C19.1705 67.9762 19.2754 67.9715 19.3919 67.9622C19.5085 67.9529 19.6157 67.9342 19.7136 67.9062C19.9933 67.8363 20.2124 67.7128 20.3709 67.5356C20.5341 67.3585 20.6483 67.158 20.7136 66.9343C20.7835 66.7105 20.8185 66.4914 20.8185 66.2769C20.8185 66.0625 20.7835 65.8434 20.7136 65.6196C20.6483 65.3912 20.5341 65.1884 20.3709 65.0112C20.2124 64.8341 19.9933 64.7106 19.7136 64.6406C19.6157 64.6127 19.5085 64.5963 19.3919 64.5917C19.2754 64.5824 19.1705 64.5777 19.0773 64.5777H16.6718V67.9762ZM26.3309 73.2767C25.7855 73.2767 25.324 73.1741 24.9464 72.969C24.5688 72.7592 24.2821 72.4818 24.0863 72.1369C23.8951 71.7919 23.7996 71.4119 23.7996 70.997C23.7996 70.6334 23.8602 70.3071 23.9814 70.0181C24.1026 69.7244 24.2891 69.4726 24.5408 69.2628C24.7925 69.0484 25.1189 68.8736 25.5198 68.7384C25.8228 68.6405 26.1771 68.5519 26.5827 68.4727C26.9929 68.3934 27.4358 68.3211 27.9113 68.2559C28.3915 68.186 28.8926 68.1114 29.4147 68.0321L28.8134 68.3748C28.818 67.8526 28.7015 67.468 28.4637 67.221C28.226 66.9739 27.8251 66.8503 27.261 66.8503C26.9207 66.8503 26.592 66.9296 26.275 67.0881C25.958 67.2466 25.7366 67.5193 25.6107 67.9062L24.0723 67.4237C24.2588 66.7851 24.6131 66.2723 25.1352 65.8853C25.662 65.4984 26.3706 65.3049 27.261 65.3049C27.9323 65.3049 28.522 65.4145 29.0301 65.6336C29.5429 65.8527 29.9229 66.2117 30.17 66.7105C30.3052 66.9762 30.3867 67.2489 30.4147 67.5286C30.4427 67.8037 30.4567 68.1044 30.4567 68.4307V73.0669H28.9812V71.4306L29.2259 71.6963C28.8856 72.2418 28.487 72.6427 28.0302 72.8991C27.578 73.1508 27.0116 73.2767 26.3309 73.2767ZM26.6666 71.9341C27.0489 71.9341 27.3752 71.8665 27.6456 71.7313C27.916 71.5961 28.1304 71.4306 28.2889 71.2348C28.4521 71.039 28.5616 70.8549 28.6176 70.6824C28.7061 70.4679 28.7551 70.2232 28.7644 69.9481C28.7784 69.6684 28.7854 69.4423 28.7854 69.2698L29.3029 69.4237C28.7947 69.5029 28.3588 69.5729 27.9952 69.6335C27.6316 69.6941 27.3192 69.7523 27.0582 69.8083C26.7971 69.8596 26.5664 69.9178 26.3659 69.9831C26.1701 70.053 26.0046 70.1346 25.8694 70.2278C25.7342 70.3211 25.6293 70.4283 25.5547 70.5495C25.4848 70.6707 25.4499 70.8129 25.4499 70.9761C25.4499 71.1625 25.4965 71.328 25.5897 71.4725C25.6829 71.6124 25.8181 71.7243 25.9953 71.8082C26.1771 71.8921 26.4009 71.9341 26.6666 71.9341ZM36.7036 73.0669C36.2048 73.1601 35.7153 73.1998 35.2351 73.1858C34.7596 73.1764 34.333 73.0902 33.9554 72.927C33.5778 72.7592 33.2911 72.4958 33.0953 72.1369C32.9228 71.8105 32.8319 71.4772 32.8226 71.1369C32.8133 70.7966 32.8086 70.412 32.8086 69.9831V63.4169H34.4869V69.8852C34.4869 70.1882 34.4892 70.4539 34.4939 70.6824C34.5032 70.9108 34.5522 71.0973 34.6407 71.2418C34.8086 71.5215 35.0766 71.6777 35.4449 71.7103C35.8132 71.7429 36.2327 71.7243 36.7036 71.6544V73.0669ZM31.438 66.8364V65.5147H36.7036V66.8364H31.438ZM38.4674 64.3679V62.8225H40.1527V64.3679H38.4674ZM38.4674 73.0669V65.5147H40.1527V73.0669H38.4674ZM47.4709 73.0669V69.4307C47.4709 69.1929 47.4546 68.9295 47.4219 68.6405C47.3893 68.3515 47.3124 68.0741 47.1912 67.8083C47.0746 67.538 46.8975 67.3165 46.6597 67.144C46.4266 66.9715 46.1096 66.8853 45.7087 66.8853C45.4943 66.8853 45.2822 66.9203 45.0724 66.9902C44.8626 67.0601 44.6715 67.1813 44.499 67.3538C44.3312 67.5216 44.196 67.7547 44.0934 68.0531C43.9908 68.3468 43.9396 68.7244 43.9396 69.1859L42.9396 68.7594C42.9396 68.116 43.0631 67.5333 43.3102 67.0112C43.5619 66.489 43.9302 66.0741 44.4151 65.7665C44.8999 65.4541 45.4966 65.2979 46.2052 65.2979C46.7646 65.2979 47.2262 65.3912 47.5898 65.5777C47.9534 65.7641 48.2424 66.0019 48.4569 66.2909C48.6713 66.58 48.8298 66.8876 48.9324 67.214C49.0349 67.5403 49.1002 67.8503 49.1282 68.144C49.1608 68.433 49.1771 68.6685 49.1771 68.8503V73.0669H47.4709ZM42.2333 73.0669V65.5147H43.7368V67.8573H43.9396V73.0669H42.2333ZM54.1766 76.6332C53.7571 76.6332 53.3538 76.5679 52.9669 76.4374C52.5846 76.3069 52.2396 76.1181 51.9319 75.871C51.6243 75.6286 51.3725 75.3349 51.1767 74.9899L52.7291 74.2207C52.8736 74.4957 53.0764 74.6985 53.3375 74.8291C53.6032 74.9643 53.8853 75.0319 54.1836 75.0319C54.5332 75.0319 54.8456 74.9689 55.1206 74.8431C55.3957 74.7218 55.6078 74.54 55.757 74.2976C55.9108 74.0599 55.9831 73.7615 55.9738 73.4025V71.2558H56.1835V65.5147H57.659V73.4305C57.659 73.6217 57.6497 73.8035 57.631 73.976C57.617 74.1531 57.5914 74.3256 57.5541 74.4934C57.4422 74.9829 57.2278 75.3838 56.9108 75.6962C56.5938 76.0132 56.1999 76.2486 55.729 76.4024C55.2628 76.5563 54.7454 76.6332 54.1766 76.6332ZM54.0298 73.2767C53.3352 73.2767 52.7291 73.1019 52.2117 72.7522C51.6942 72.4026 51.2933 71.9271 51.0089 71.3257C50.7245 70.7243 50.5823 70.046 50.5823 69.2908C50.5823 68.5263 50.7245 67.8456 51.0089 67.2489C51.2979 66.6476 51.7058 66.1744 52.2326 65.8294C52.7594 65.4798 53.3794 65.3049 54.0927 65.3049C54.8106 65.3049 55.412 65.4798 55.8968 65.8294C56.3863 66.1744 56.7569 66.6476 57.0087 67.2489C57.2604 67.8503 57.3863 68.5309 57.3863 69.2908C57.3863 70.0414 57.2604 70.7197 57.0087 71.3257C56.7569 71.9271 56.3817 72.4026 55.8828 72.7522C55.384 73.1019 54.7663 73.2767 54.0298 73.2767ZM54.2885 71.7662C54.7407 71.7662 55.1043 71.6637 55.3794 71.4586C55.6591 71.2488 55.8619 70.9574 55.9877 70.5845C56.1183 70.2115 56.1835 69.7803 56.1835 69.2908C56.1835 68.7967 56.1183 68.3654 55.9877 67.9972C55.8619 67.6242 55.6637 67.3352 55.3934 67.13C55.123 66.9203 54.7733 66.8154 54.3444 66.8154C53.8922 66.8154 53.5193 66.9273 53.2256 67.151C52.9319 67.3701 52.7151 67.6685 52.5753 68.0461C52.4354 68.419 52.3655 68.8339 52.3655 69.2908C52.3655 69.7523 52.4331 70.1719 52.5683 70.5495C52.7081 70.9225 52.9203 71.2185 53.2046 71.4376C53.489 71.6567 53.8503 71.7662 54.2885 71.7662ZM62.5359 73.2767C61.6035 73.2767 60.846 73.0669 60.2633 72.6473C59.6805 72.2278 59.3262 71.638 59.2004 70.8782L60.9206 70.6124C61.0092 70.9854 61.205 71.2791 61.508 71.4935C61.811 71.708 62.1933 71.8152 62.6548 71.8152C63.0604 71.8152 63.3727 71.7359 63.5918 71.5774C63.8156 71.4143 63.9275 71.1928 63.9275 70.9131C63.9275 70.7406 63.8855 70.6031 63.8016 70.5006C63.7223 70.3933 63.5452 70.2908 63.2701 70.1929C62.9951 70.095 62.5732 69.9714 62.0045 69.8223C61.3704 69.6544 60.867 69.475 60.494 69.2838C60.1211 69.088 59.853 68.8573 59.6899 68.5915C59.5267 68.3258 59.4451 68.0041 59.4451 67.6265C59.4451 67.1557 59.5686 66.7454 59.8157 66.3958C60.0628 66.0462 60.4078 65.7781 60.8507 65.5916C61.2935 65.4005 61.8157 65.3049 62.417 65.3049C63.0044 65.3049 63.5242 65.3958 63.9764 65.5777C64.4333 65.7595 64.8016 66.0182 65.0813 66.3539C65.361 66.6895 65.5335 67.0834 65.5987 67.5356L63.8785 67.8433C63.8366 67.5216 63.6897 67.2676 63.438 67.0811C63.1909 66.8946 62.8599 66.7897 62.445 66.7664C62.0487 66.7431 61.7294 66.8037 61.487 66.9482C61.2446 67.0881 61.1234 67.2862 61.1234 67.5426C61.1234 67.6871 61.1723 67.8107 61.2702 67.9132C61.3681 68.0158 61.5639 68.1184 61.8576 68.2209C62.156 68.3235 62.5988 68.4493 63.1862 68.5985C63.7876 68.7524 64.2678 68.9295 64.6267 69.13C64.9904 69.3258 65.2514 69.5612 65.4099 69.8362C65.5731 70.1113 65.6547 70.4446 65.6547 70.8362C65.6547 71.5961 65.3773 72.1928 64.8225 72.6264C64.2724 73.0599 63.5102 73.2767 62.5359 73.2767Z" fill="#004A8F"/>
</svg>
