<svg width="45" height="45" viewBox="0 0 45 45" fill="none" xmlns="http://www.w3.org/2000/svg">
<path fill-rule="evenodd" clip-rule="evenodd" d="M22.4704 0.300167C22.0442 0.312722 21.6727 0.594186 21.5454 1.00121L16.7498 16.345H1.49971C1.07107 16.345 0.690206 16.6185 0.55283 17.0245C0.41541 17.4304 0.552133 17.879 0.892538 18.1391L13.2658 27.5927L8.56329 43.008L8.56364 43.0083C8.43703 43.4237 8.59294 43.8733 8.94938 44.1209C9.30618 44.3689 9.78191 44.3581 10.1269 44.0944L22.5002 34.6426L34.8734 44.0944C35.2191 44.3584 35.6955 44.3689 36.0523 44.1199C36.4091 43.8712 36.5639 43.4202 36.4356 43.0049L31.648 27.5164L44.1016 18.144V18.1437C44.4455 17.8845 44.585 17.4343 44.448 17.0262C44.3105 16.6181 43.9276 16.3436 43.4969 16.345L28.212 16.3977L23.4554 1.00474L23.4558 1.0044C23.3229 0.575053 22.9204 0.28732 22.4712 0.300222L22.4704 0.300167Z" fill="#F6AE2D"/>
</svg>
