<svg width="45" height="45" viewBox="0 0 45 45" fill="none" xmlns="http://www.w3.org/2000/svg">
<path d="M17.2734 22.5719C17.8934 22.5719 18.3963 22.069 18.3963 21.449C18.3963 20.8287 17.8934 20.3262 17.2734 20.3262C15.4312 20.3262 13.6643 21.0577 12.3613 22.36C11.0583 23.6624 10.3262 25.4291 10.3252 27.2712C10.3246 29.1134 11.0552 30.8806 12.3572 32.1839C13.6589 33.4875 15.4253 34.2207 17.2675 34.2222C19.1097 34.2237 20.8772 33.4938 22.1812 32.1923C23.4854 30.8912 24.2191 29.1252 24.2216 27.2831C24.2216 26.663 23.7188 26.1602 23.0988 26.1602C22.4785 26.1602 21.9759 26.663 21.9759 27.2831C21.9759 28.5331 21.4791 29.732 20.5949 30.6156C19.7105 31.4994 18.5115 31.9953 17.2615 31.9946C16.0115 31.9937 14.8129 31.4962 13.9297 30.6115C13.0468 29.7268 12.5515 28.5272 12.5531 27.2771C12.5546 26.0271 13.0528 24.8288 13.9382 23.9462C14.8235 23.0637 16.0235 22.5693 17.2735 22.5718L17.2734 22.5719Z" fill="#0E62CB"/>
<path d="M2.91926 31.1547L4.58563 31.4467C4.79523 32.0864 5.05369 32.7095 5.3579 33.3104L4.38793 34.6939C3.99286 35.256 3.80896 35.9396 3.86911 36.6241C3.92895 37.3086 4.22877 37.9502 4.71565 38.4349L6.12169 39.8409C6.60635 40.3278 7.24798 40.6276 7.93251 40.6875C8.61706 40.7476 9.30069 40.5637 9.86267 40.1687L11.2459 39.1984L11.2462 39.1987C11.8471 39.5029 12.4702 39.761 13.1099 39.971L13.4019 41.6373C13.5178 42.3166 13.8703 42.9331 14.3975 43.377C14.9245 43.8209 15.5918 44.0641 16.281 44.0625H18.2708H18.2705C18.9607 44.065 19.6289 43.8225 20.1568 43.3786C20.6851 42.9343 21.0381 42.3175 21.1541 41.6373L21.4461 39.9709C22.0861 39.761 22.7093 39.5029 23.3098 39.1987L24.693 40.169L24.6933 40.1686C25.2557 40.5637 25.9393 40.7476 26.6238 40.6875C27.3084 40.6276 27.9496 40.3278 28.4346 39.8409L29.8403 38.4352V38.4349C30.3272 37.9502 30.627 37.3086 30.6872 36.6241C30.747 35.9395 30.5634 35.2559 30.1684 34.6939L29.1981 33.3107V33.3104C29.5023 32.7095 29.7608 32.0864 29.9707 31.4467L31.637 31.1547H31.6367C31.9397 31.1155 32.2135 30.9542 32.3943 30.7082C32.5754 30.4623 32.648 30.1528 32.5951 29.852C32.5425 29.5512 32.3689 29.2852 32.1148 29.1154C31.861 28.9459 31.5487 28.8873 31.2508 28.9538L28.9065 29.367H28.9061C28.4744 29.4375 28.1235 29.7536 28.008 30.1753C27.7586 31.1058 27.3886 31.9996 26.9076 32.8342C26.6912 33.2107 26.7122 33.6781 26.9615 34.0334L28.3403 35.9784C28.5421 36.255 28.5095 36.6378 28.2639 36.8766L26.8581 38.2823C26.6194 38.5279 26.2366 38.5605 25.96 38.3587L24.0106 37.0112C23.655 36.7622 23.1876 36.7412 22.8113 36.9573C21.9796 37.4376 21.0888 37.8076 20.1615 38.0576C19.7395 38.1732 19.4237 38.5241 19.3529 38.9558L18.9397 41.3002L18.94 41.3005C18.861 41.6072 18.5828 41.8205 18.2661 41.8168H16.2811C15.9474 41.8177 15.6617 41.5793 15.6028 41.251L15.1896 38.9066C15.1191 38.4746 14.803 38.1237 14.3813 38.0081C13.4511 37.7616 12.5573 37.3947 11.7224 36.917C11.3458 36.7008 10.8784 36.7218 10.5231 36.9709L8.57381 38.3183C8.29717 38.5201 7.91401 38.4875 7.67562 38.2419L6.29212 36.8766C6.04649 36.6379 6.01391 36.255 6.21599 35.9784L7.56347 34.0291H7.56316C7.81756 33.6791 7.84732 33.2139 7.6396 32.8342C7.15901 32.0028 6.78905 31.1117 6.5393 30.1844C6.4237 29.7624 6.07281 29.4466 5.64111 29.3761L3.29678 28.9629H3.29646C2.96845 28.8996 2.73348 28.6095 2.73974 28.2755V26.2905C2.7388 25.9572 2.97722 25.6711 3.30555 25.6122L5.64988 25.199C6.08191 25.1285 6.4328 24.8127 6.54839 24.3907C6.79778 23.4618 7.16778 22.5692 7.6487 21.7362C7.86487 21.3599 7.84388 20.8924 7.59481 20.5369L6.24732 18.5876V18.5879C6.04525 18.3112 6.07783 17.9281 6.32377 17.6894L7.68 16.3018C7.91622 16.053 8.29969 16.0167 8.57819 16.2162L10.5275 17.5637C10.8831 17.8128 11.3506 17.8338 11.7268 17.6176C12.5599 17.1367 13.4521 16.7671 14.3814 16.5173C14.803 16.4017 15.1192 16.0508 15.1896 15.6191L15.6029 13.2748V13.2745C15.6793 12.6814 15.2761 12.1332 14.6871 12.0297C14.0981 11.9263 13.532 12.3045 13.402 12.8881L13.11 14.5545C12.4703 14.7644 11.8472 15.0226 11.2463 15.3271L9.8631 14.3568H9.86278C9.30074 13.9617 8.61715 13.7778 7.93262 13.838C7.24807 13.8978 6.60646 14.198 6.1218 14.6848L4.71608 16.0906H4.71577C4.22985 16.5758 3.93065 17.2175 3.87147 17.902C3.81226 18.5866 3.99679 19.2702 4.39248 19.8319L5.36277 21.215C5.05825 21.8159 4.8001 22.4391 4.5902 23.0791L2.91941 23.4024C2.23862 23.5183 1.62108 23.8724 1.17684 24.4012C0.732588 24.93 0.490728 25.5995 0.494177 26.2904V28.2801C0.493864 28.9684 0.737288 29.6345 1.18123 30.1608C1.62517 30.6868 2.24079 31.0389 2.91938 31.1546L2.91926 31.1547Z" fill="#0E62CB"/>
<path d="M42.8644 12.6769L41.6068 12.093V12.0933C41.4894 11.1318 41.2384 10.1916 40.8615 9.29966L41.6563 8.16334C42.0379 7.6201 42.2153 6.95966 42.1579 6.29831C42.1003 5.63694 41.8114 5.0169 41.3421 4.54764L39.9946 3.20015C39.5253 2.73083 38.9053 2.44198 38.2439 2.38432C37.5826 2.32699 36.9222 2.50432 36.3789 2.88591L35.2561 3.69892C34.3641 3.32172 33.4239 3.07077 32.4624 2.95328L31.8785 1.6957H31.8788C31.5987 1.09293 31.115 0.607991 30.5128 0.32696C29.9104 0.0459368 29.2283 -0.013277 28.5864 0.159665L26.79 0.644643C26.1415 0.813511 25.5744 1.20763 25.19 1.7565C24.8056 2.30536 24.6292 2.97333 24.6925 3.6403L24.8138 4.98779C24.0427 5.57271 23.355 6.26037 22.7702 7.03136L21.3914 6.91012C20.7304 6.85153 20.0699 7.02792 19.5261 7.40825C18.9822 7.78859 18.5899 8.34879 18.4183 8.98977L17.9333 10.7862H17.933C17.7601 11.4278 17.8196 12.1101 18.1006 12.7126C18.3816 13.3148 18.8663 13.7985 19.469 14.0782L20.7266 14.6622C20.8441 15.6234 21.095 16.5639 21.4722 17.4558L20.6774 18.5922C20.2958 19.1354 20.1182 19.7958 20.1758 20.4572C20.2332 21.1186 20.5223 21.7383 20.9917 22.2075L22.3392 23.555C22.8085 24.0247 23.4281 24.3135 24.0895 24.3712C24.7509 24.4285 25.4112 24.2509 25.9545 23.8696L27.0909 23.0748V23.0745C27.9728 23.4601 28.9038 23.7214 29.8575 23.8514L30.4415 25.109C30.7235 25.7086 31.2075 26.1899 31.8087 26.468C32.4096 26.7466 33.0898 26.8045 33.7292 26.6316L35.5256 26.1466C36.1675 25.9759 36.7286 25.5839 37.1096 25.04C37.4909 24.4959 37.6679 23.8352 37.6096 23.1735L37.4883 21.7947C37.8734 21.5024 38.2381 21.1841 38.5798 20.8423C38.9342 20.4989 39.2644 20.1314 39.5679 19.742L40.9467 19.8632C41.6077 19.9218 42.2682 19.7454 42.8121 19.3651C43.3559 18.9848 43.7482 18.4249 43.9198 17.7836L44.4048 15.9872H44.4051C44.5824 15.3424 44.5248 14.6557 44.2425 14.0492C43.9606 13.443 43.4721 12.9567 42.8643 12.677L42.8644 12.6769ZM42.24 15.3719L41.755 17.1683C41.6874 17.4506 41.4245 17.6411 41.1354 17.6176L39.1186 17.4603C38.7104 17.4255 38.3157 17.6169 38.0901 17.9591C37.4701 18.8949 36.6684 19.6969 35.7323 20.3169C35.3902 20.5424 35.1991 20.9372 35.2339 21.3454L35.4134 23.3621C35.4369 23.651 35.2464 23.9141 34.9641 23.9818L33.1677 24.4668C32.8917 24.542 32.6016 24.4072 32.4807 24.1481L31.6229 22.3066H31.6226C31.4487 21.9347 31.085 21.6882 30.6753 21.6644C29.5499 21.6026 28.4493 21.3106 27.4415 20.8066C27.0743 20.6236 26.6363 20.6562 26.3004 20.8918L24.6522 22.0551C24.4178 22.2189 24.0992 22.1907 23.8975 21.9877L22.55 20.6402H22.5503C22.3626 20.4369 22.3419 20.1302 22.5008 19.9037L23.664 18.2419C23.8943 17.9092 23.9269 17.4781 23.7493 17.1144C23.2458 16.1125 22.9526 15.0181 22.8871 13.8987C22.8633 13.4889 22.6167 13.1252 22.2448 12.951L20.4033 12.0933C20.1442 11.972 20.0095 11.6822 20.0844 11.4059L20.5693 9.60953H20.5696C20.6373 9.32757 20.9002 9.13677 21.1893 9.16026L23.206 9.33978V9.34009C23.6143 9.37487 24.009 9.18345 24.2346 8.84133C24.8546 7.90552 25.6563 7.10349 26.5924 6.48352C26.9423 6.25576 27.1362 5.85255 27.0955 5.43712L26.916 3.42041H26.9157C26.8922 3.13124 27.083 2.86839 27.3649 2.80072L29.1613 2.31574V2.31543C29.4377 2.24055 29.7275 2.37526 29.8487 2.63436L30.7065 4.4759C30.8803 4.84778 31.2444 5.09434 31.6541 5.11815C32.7735 5.18363 33.8679 5.47687 34.8698 5.98033C35.2398 6.16266 35.68 6.12632 36.0152 5.88603L37.6769 4.72276C37.9116 4.55891 38.2299 4.58742 38.4316 4.79012L39.7791 6.13761C39.9818 6.33937 40.0103 6.65768 39.8465 6.89234L38.6697 8.54059C38.4341 8.87644 38.4012 9.3141 38.5842 9.68131C39.0877 10.6835 39.3812 11.7779 39.4467 12.8973C39.4705 13.3071 39.7171 13.6708 40.089 13.845L41.9305 14.7027C42.1949 14.819 42.3356 15.1103 42.2626 15.3898L42.24 15.3719Z" fill="#0E62CB"/>
<path d="M31.1647 8.58113C29.889 8.58113 28.6656 9.08804 27.7633 9.98998C26.8614 10.8919 26.3545 12.1157 26.3545 13.3914C26.3545 14.6671 26.8614 15.8905 27.7633 16.7928C28.6656 17.6948 29.889 18.2016 31.1647 18.2016C32.4404 18.2016 33.6642 17.6947 34.5661 16.7928C35.4681 15.8905 35.975 14.6671 35.975 13.3914C35.9725 12.1163 35.4649 10.8941 34.5636 9.99247C33.6619 9.09115 32.4398 8.58362 31.1647 8.58105L31.1647 8.58113ZM31.1647 15.9695C30.4802 15.973 29.8226 15.7041 29.3364 15.2223C28.8501 14.7405 28.5757 14.085 28.5732 13.4005C28.571 12.7159 28.8407 12.0587 29.3235 11.5734C29.8063 11.0881 30.4623 10.8146 31.1468 10.8133C31.8314 10.8121 32.4881 11.0834 32.9727 11.5668C33.4571 12.0505 33.7293 12.7069 33.7293 13.3914C33.7281 14.0725 33.458 14.7254 32.9778 15.2082C32.4975 15.691 31.8459 15.9648 31.1648 15.9695L31.1647 15.9695Z" fill="#0E62CB"/>
</svg>
