<svg width="60" height="42" viewBox="0 0 60 42" fill="none" xmlns="http://www.w3.org/2000/svg">
<path d="M52.5931 23.4444L49.2179 10.6949L51.3743 11.6323C51.6557 11.726 52.0303 11.726 52.2181 11.5386C52.4995 11.3513 52.6868 11.0699 52.6868 10.7885V2.25742C52.6868 1.97601 52.4995 1.60138 52.2181 1.50729C51.9366 1.31998 51.6557 1.31998 51.3743 1.41363L47.2494 3.19485L46.6871 1.22635C46.5934 0.85129 46.2183 0.570312 45.7496 0.570312H41.5306C41.2492 0.570312 40.9683 0.663971 40.8746 0.851721C40.6873 1.03904 40.5932 1.32044 40.6873 1.60185L40.9687 3.66449H35.4373C34.8749 3.66449 34.4999 4.03955 34.4999 4.60194C34.4999 5.16431 34.8749 5.53939 35.4373 5.53939H41.2497L42.4685 15.2893C43.6869 29.8199 28.5931 30.663 27.1876 25.9763C26.9062 24.9452 27.1876 23.6327 28.1251 22.0387C28.5938 21.1013 29.2503 18.8513 29.5313 17.7262C31.2188 17.3511 32.5313 15.8513 32.5313 14.07C32.5313 12.0074 30.8438 10.3202 28.7815 10.3202L15.0939 10.3198C13.0313 10.3198 11.3441 12.0073 11.3441 14.0696C11.3441 14.7256 11.5314 15.3821 11.9065 15.9445C5.25029 16.32 0 21.851 0 28.6012V31.5077C0 32.0701 0.37506 32.4451 0.937447 32.4451H2.34366V33.0075C2.34366 37.601 6.09349 41.3513 10.6875 41.3513C14.625 41.3513 17.906 38.6327 18.7499 35.0701H42.5628C43.7816 38.7263 47.1563 41.2576 51.0939 41.2576C56.0626 41.2576 60 37.2265 60 32.3515C60.0004 27.8512 56.813 24.1014 52.5941 23.445L52.5931 23.4444ZM50.7182 3.66324V9.28831L48.5618 8.35087L47.6244 4.97571L50.7182 3.66324ZM15.0927 12.1948H28.6863C29.7174 12.1948 30.5613 13.0386 30.5613 14.0697C30.5613 15.1008 29.7175 15.9446 28.6863 15.9446H15.0927C14.0616 15.9446 13.2178 15.1008 13.2178 14.0697C13.2178 13.0386 14.0615 12.1948 15.0927 12.1948ZM10.6864 39.3821C7.12398 39.3821 4.21753 36.4756 4.21753 32.9132V32.3508H17.061V32.9132C17.1551 36.4761 14.2486 39.3821 10.6862 39.3821H10.6864ZM18.8428 31.2261C18.7492 30.7574 18.3741 30.476 17.9054 30.476H1.87431V28.5075C1.87431 22.6014 6.74927 17.7265 12.6553 17.7265H27.5616C27.1866 19.039 26.8115 20.5388 26.5305 21.0075C25.3117 23.0701 25.0307 24.8514 25.4994 26.4448C27.5621 33.4761 45.843 31.6949 44.2497 14.914L42.6557 2.25734H45.0934L50.7185 23.6318C49.1245 28.9754 47.0623 32.0692 44.3437 32.913H19.0314V32.7257C19.031 32.3506 18.9373 31.7882 18.8437 31.2259L18.8428 31.2261ZM51.0928 39.2885C48.1864 39.2885 45.6555 37.5073 44.5303 34.976H44.8117C48.0927 34.0385 50.4367 30.9448 52.218 25.3196C55.5931 25.882 58.124 28.7885 58.124 32.2572C58.124 36.1011 54.9361 39.2885 51.0927 39.2885H51.0928Z" fill="#0E62CB"/>
<path d="M7.5937 4.22689H19.3123C19.8747 4.22689 20.2498 3.85183 20.2498 3.28944C20.2498 2.72706 19.8747 2.35199 19.3123 2.35199L7.5937 2.35156C7.03132 2.35156 6.65625 2.72662 6.65625 3.28901C6.65625 3.85183 7.03131 4.22689 7.5937 4.22689Z" fill="#F47523"/>
<path d="M4.96881 3.94489C5.34387 3.56983 5.34387 3.00745 4.96881 2.63237C4.59375 2.2573 3.93772 2.25731 3.6563 2.63237C3.28123 3.00743 3.28123 3.56982 3.6563 3.94489C4.03136 4.31995 4.59417 4.31995 4.96881 3.94489Z" fill="#F47523"/>
<path d="M1.59382 3.94489C1.96888 3.56983 1.96888 3.00744 1.59382 2.63237C1.21876 2.25731 0.656371 2.25731 0.2813 2.63237C-0.093772 3.00743 -0.093761 3.56982 0.2813 3.94489C0.65636 4.31995 1.21875 4.31995 1.59382 3.94489Z" fill="#F47523"/>
<path d="M5.1562 6.57031C4.59382 6.57031 4.21875 6.94537 4.21875 7.50776C4.21875 8.07015 4.59381 8.44521 5.1562 8.44521H12.7499C13.3123 8.44521 13.6873 8.07015 13.6873 7.50776C13.6873 6.94537 13.3123 6.57031 12.7499 6.57031H5.1562Z" fill="#F47523"/>
<path d="M1.59394 8.16336C1.78125 7.97561 1.87492 7.7883 1.87492 7.50689C1.87492 6.28807 0 6.28807 0 7.50689C0 7.7883 0.0936583 7.97561 0.281408 8.16293C0.656469 8.53799 1.21887 8.53799 1.59394 8.16336Z" fill="#F47523"/>
</svg>
