<svg width="38" height="44" viewBox="0 0 38 44" fill="none" xmlns="http://www.w3.org/2000/svg">
<path d="M1.76852 0.00109907C1.51989 0.0245314 1.28903 0.140138 1.12133 0.325183C0.953633 0.510228 0.861237 0.75132 0.862314 1.00105V36.2335C0.862341 36.4987 0.9677 36.7531 1.15522 36.9406C1.34274 37.1281 1.59707 37.2335 1.86226 37.2335H18.3301C18.4626 37.2354 18.5942 37.2109 18.7172 37.1615C18.8401 37.1121 18.952 37.0387 19.0464 36.9457C19.1408 36.8526 19.2157 36.7418 19.2668 36.6195C19.318 36.4973 19.3443 36.3661 19.3443 36.2335C19.3443 36.101 19.318 35.9698 19.2668 35.8476C19.2157 35.7253 19.1408 35.6145 19.0464 35.5214C18.952 35.4284 18.8401 35.355 18.7172 35.3056C18.5942 35.2562 18.4626 35.2317 18.3301 35.2336H2.86221V2.00099H30.5951V14.4535C29.5902 14.1331 28.5173 13.9535 27.4078 13.9535C21.6488 13.9535 16.9552 18.6149 16.9552 24.3279C16.9552 27.781 18.6838 30.8454 21.3144 32.7337V42.9988C21.3141 43.1807 21.3635 43.3592 21.4572 43.5151C21.5509 43.671 21.6854 43.7984 21.8461 43.8836C22.0068 43.9687 22.1877 44.0085 22.3693 43.9985C22.5509 43.9885 22.7264 43.9292 22.8768 43.8269L27.4234 40.7958L31.9544 43.8269C32.1048 43.9292 32.2803 43.9885 32.4619 43.9985C32.6435 44.0085 32.8244 43.9687 32.9851 43.8836C33.1458 43.7984 33.2802 43.671 33.3739 43.5151C33.4676 43.3592 33.517 43.1807 33.5168 42.9988V36.6085C33.5187 36.476 33.4942 36.3445 33.4448 36.2215C33.3954 36.0985 33.322 35.9866 33.229 35.8923C33.136 35.7979 33.0251 35.723 32.9028 35.6718C32.7806 35.6207 32.6494 35.5943 32.5169 35.5943C32.3844 35.5943 32.2532 35.6207 32.1309 35.6718C32.0087 35.723 31.8978 35.7979 31.8048 35.8923C31.7117 35.9866 31.6384 36.0985 31.589 36.2215C31.5395 36.3445 31.5151 36.476 31.5169 36.6085V41.1239L27.9702 38.7647C27.806 38.6552 27.613 38.5967 27.4156 38.5967C27.2182 38.5967 27.0252 38.6552 26.8609 38.7647L23.3142 41.1239V33.8743C24.5736 34.4095 25.9555 34.7024 27.4078 34.7024C33.1668 34.7024 37.876 30.0409 37.876 24.3279C37.876 20.4845 35.7412 17.1216 32.595 15.3284V1.00105C32.595 0.735852 32.4896 0.481527 32.3021 0.294006C32.1146 0.106485 31.8602 0.00112558 31.5951 0.00109907H1.86226C1.83103 -0.000366356 1.79975 -0.000366356 1.76852 0.00109907ZM6.50264 5.04771C6.37014 5.04583 6.23858 5.07031 6.11562 5.11973C5.99266 5.16914 5.88074 5.24249 5.78638 5.33553C5.69202 5.42857 5.61708 5.53944 5.56594 5.66169C5.5148 5.78394 5.48846 5.91513 5.48846 6.04765C5.48846 6.18017 5.5148 6.31137 5.56594 6.43362C5.61708 6.55587 5.69202 6.66673 5.78638 6.75977C5.88074 6.85281 5.99266 6.92617 6.11562 6.97558C6.23858 7.02499 6.37014 7.04947 6.50264 7.0476H18.9707C19.1032 7.04947 19.2348 7.02499 19.3577 6.97558C19.4807 6.92617 19.5926 6.85281 19.687 6.75977C19.7813 6.66673 19.8563 6.55587 19.9074 6.43362C19.9586 6.31137 19.9849 6.18017 19.9849 6.04765C19.9849 5.91513 19.9586 5.78394 19.9074 5.66169C19.8563 5.53944 19.7813 5.42857 19.687 5.33553C19.5926 5.24249 19.4807 5.16914 19.3577 5.11973C19.2348 5.07031 19.1032 5.04583 18.9707 5.04771H6.50264ZM6.40889 9.75058C6.27756 9.75671 6.14872 9.78865 6.02974 9.84458C5.91075 9.90051 5.80394 9.97933 5.71542 10.0765C5.6269 10.1737 5.55839 10.2874 5.51382 10.4111C5.46924 10.5348 5.44946 10.6661 5.45562 10.7974C5.46178 10.9287 5.49374 11.0576 5.54969 11.1766C5.60565 11.2955 5.68449 11.4023 5.78171 11.4908C5.87894 11.5793 5.99265 11.6478 6.11635 11.6924C6.24005 11.7369 6.37131 11.7567 6.50264 11.7505H26.9547C27.0872 11.7523 27.2187 11.7279 27.3417 11.6785C27.4647 11.629 27.5766 11.5557 27.6709 11.4626C27.7653 11.3696 27.8402 11.2587 27.8914 11.1365C27.9425 11.0142 27.9689 10.883 27.9689 10.7505C27.9689 10.618 27.9425 10.4868 27.8914 10.3646C27.8402 10.2423 27.7653 10.1314 27.6709 10.0384C27.5766 9.94537 27.4647 9.87201 27.3417 9.8226C27.2187 9.77319 27.0872 9.74871 26.9547 9.75058H6.50264C6.47141 9.74912 6.44013 9.74912 6.40889 9.75058ZM6.40889 14.4535C6.27756 14.4596 6.14872 14.4915 6.02974 14.5475C5.91075 14.6034 5.80394 14.6822 5.71542 14.7794C5.6269 14.8766 5.55839 14.9903 5.51382 15.114C5.46924 15.2377 5.44946 15.369 5.45562 15.5003C5.46178 15.6316 5.49374 15.7604 5.54969 15.8794C5.60565 15.9984 5.68449 16.1052 5.78171 16.1937C5.87894 16.2822 5.99265 16.3507 6.11635 16.3952C6.24005 16.4398 6.37131 16.4595 6.50264 16.4533H16.3459C16.4784 16.4552 16.6099 16.4307 16.7329 16.3813C16.8558 16.3319 16.9678 16.2586 17.0621 16.1655C17.1565 16.0725 17.2314 15.9616 17.2826 15.8394C17.3337 15.7171 17.36 15.5859 17.36 15.4534C17.36 15.3209 17.3337 15.1897 17.2826 15.0674C17.2314 14.9452 17.1565 14.8343 17.0621 14.7413C16.9678 14.6482 16.8558 14.5749 16.7329 14.5255C16.6099 14.4761 16.4784 14.4516 16.3459 14.4535H6.50264C6.47141 14.452 6.44013 14.452 6.40889 14.4535ZM27.4078 15.969C32.0816 15.969 35.8448 19.6914 35.8448 24.3279C35.8448 28.9644 32.0816 32.6869 27.4078 32.6869C22.734 32.6869 18.9864 28.9644 18.9864 24.3279C18.9864 19.6914 22.734 15.969 27.4078 15.969ZM6.40889 19.1563C6.27756 19.1625 6.14872 19.1944 6.02974 19.2503C5.91075 19.3063 5.80394 19.3851 5.71542 19.4823C5.6269 19.5795 5.55839 19.6932 5.51382 19.8169C5.46924 19.9406 5.44946 20.0718 5.45562 20.2032C5.46178 20.3345 5.49374 20.4633 5.54969 20.5823C5.60565 20.7013 5.68449 20.8081 5.78171 20.8966C5.87894 20.9851 5.99265 21.0536 6.11635 21.0981C6.24005 21.1427 6.37131 21.1624 6.50264 21.1562H11.4243C11.5568 21.1581 11.6883 21.1336 11.8113 21.0842C11.9342 21.0348 12.0462 20.9614 12.1405 20.8684C12.2349 20.7754 12.3098 20.6645 12.361 20.5422C12.4121 20.42 12.4384 20.2888 12.4384 20.1563C12.4384 20.0238 12.4121 19.8926 12.361 19.7703C12.3098 19.6481 12.2349 19.5372 12.1405 19.4442C12.0462 19.3511 11.9342 19.2778 11.8113 19.2283C11.6883 19.1789 11.5568 19.1545 11.4243 19.1563H6.50264C6.47141 19.1549 6.44013 19.1549 6.40889 19.1563ZM31.7982 20.4219C31.6533 20.4203 31.5098 20.4502 31.3776 20.5096C31.2454 20.5689 31.1277 20.6563 31.0326 20.7656L25.9235 26.4841L23.7517 24.3279C23.659 24.2326 23.5482 24.1567 23.4259 24.1047C23.3035 24.0527 23.172 24.0256 23.039 24.025C22.906 24.0245 22.7743 24.0504 22.6514 24.1014C22.5286 24.1524 22.4172 24.2273 22.3237 24.3218C22.2302 24.4164 22.1565 24.5286 22.1069 24.652C22.0573 24.7754 22.0328 24.9074 22.0348 25.0404C22.0368 25.1733 22.0654 25.3046 22.1187 25.4264C22.1721 25.5482 22.2492 25.6581 22.3455 25.7497L25.2673 28.6402C25.3639 28.7361 25.479 28.8112 25.6057 28.861C25.7324 28.9108 25.8679 28.9342 26.0039 28.9298C26.1399 28.9255 26.2736 28.8933 26.3968 28.8355C26.52 28.7776 26.6301 28.6952 26.7203 28.5933L32.5169 22.1093C32.6508 21.9678 32.7404 21.7903 32.7748 21.5986C32.8093 21.4068 32.7869 21.2092 32.7106 21.03C32.6343 20.8508 32.5073 20.6978 32.3452 20.5898C32.1831 20.4817 31.993 20.4234 31.7982 20.4219Z" fill="#0E62CB"/>
</svg>
