<svg width="64" height="89" viewBox="0 0 64 89" fill="none" xmlns="http://www.w3.org/2000/svg">
<path d="M42.1789 8.47472C38.5102 6.61335 35.1622 4.17817 32.2613 1.26113C32.0846 1.09347 31.8504 1 31.6068 1C31.3632 1 31.129 1.09347 30.9523 1.26113C28.0514 4.17817 24.7034 6.61335 21.0347 8.47472C17.6259 10.2048 13.9795 11.4202 10.2143 12.0815C9.98583 12.1207 9.78044 12.2445 9.63899 12.4282C9.49754 12.6119 9.43039 12.8421 9.45088 13.073C10.1795 21.4282 13.4824 29.3516 18.9041 35.7505C22.3254 39.6972 26.5068 42.9141 31.1988 45.2092C31.3257 45.2718 31.4653 45.3043 31.6068 45.3043C31.7483 45.3043 31.8879 45.2718 32.0148 45.2092C36.7054 42.9137 40.8856 39.6968 44.3058 35.7505C49.7288 29.3521 53.033 21.4286 53.7627 13.073C53.7833 12.8426 53.7167 12.6129 53.576 12.4293C53.4353 12.2456 53.2308 12.1215 53.0029 12.0815C49.2365 11.4206 45.5889 10.2051 42.1789 8.47472ZM42.91 34.543C39.7517 38.1858 35.912 41.1762 31.6068 43.3463C27.3015 41.1762 23.4619 38.1858 20.3036 34.543C15.3142 28.6586 12.2048 21.4127 11.3775 13.7423C15.0242 13.0219 18.5545 11.8036 21.8693 10.1216C25.439 8.31002 28.7205 5.97924 31.6068 3.20531C34.4932 5.97859 37.7747 8.30874 41.3443 10.1198C44.6591 11.8017 48.1894 13.02 51.8361 13.7404C51.0092 21.4115 47.8998 28.6581 42.91 34.543Z" fill="#004A8F" stroke="#004A8F" stroke-width="0.342755"/>
<path d="M26.1512 29.3379V19.4548L23.8949 20.4058L22.9998 18.336L26.7479 16.5831H28.594V29.3379H26.1512ZM31.1971 29.3379V27.1189C31.9305 26.3978 32.608 25.7265 33.2296 25.1049C33.4907 24.8439 33.758 24.5766 34.0314 24.3031C34.3049 24.0296 34.5598 23.7748 34.796 23.5386C35.0322 23.3024 35.2435 23.091 35.43 22.9046C35.6165 22.7057 35.7594 22.5503 35.8589 22.4384C36.0578 22.2022 36.2318 21.9908 36.381 21.8044C36.5426 21.6179 36.6669 21.4376 36.754 21.2636C36.8534 21.0771 36.928 20.8969 36.9777 20.7228C37.0275 20.5363 37.0523 20.3374 37.0523 20.1261C37.0523 19.7159 36.8907 19.3616 36.5675 19.0632C36.2443 18.7524 35.8029 18.597 35.2435 18.597C34.6841 18.597 34.249 18.7586 33.9382 19.0819C33.6274 19.3926 33.4161 19.7469 33.3042 20.1448L31.0852 19.231C31.1846 18.8954 31.3462 18.5535 31.57 18.2054C31.7938 17.8449 32.0797 17.5279 32.4278 17.2544C32.7759 16.9685 33.1861 16.7385 33.6585 16.5645C34.1433 16.378 34.6841 16.2848 35.2808 16.2848C35.9273 16.2848 36.5115 16.3842 37.0337 16.5831C37.5558 16.7696 37.9971 17.0307 38.3576 17.3663C38.7181 17.702 38.9979 18.0998 39.1968 18.5597C39.3957 19.0073 39.4951 19.4921 39.4951 20.0142C39.4951 20.8098 39.2962 21.5433 38.8984 22.2146C38.513 22.8735 38.0406 23.4888 37.4812 24.0607L35.8775 25.6644C35.4549 26.087 34.9762 26.5594 34.4417 27.0816L34.5163 27.1934H39.6816V29.3379H31.1971Z" fill="#004A8F"/>
<path d="M5.31878 66.1963V56.1267H6.83621L10.3186 63.2593L13.801 56.1267H15.3184V66.1963H13.745V59.742L10.6542 66.1963H9.98294L6.89914 59.742V66.1963H5.31878ZM20.6185 66.4061C19.8633 66.4061 19.2036 66.2359 18.6395 65.8956C18.0754 65.5553 17.6372 65.0868 17.3249 64.4901C17.0172 63.8887 16.8634 63.1987 16.8634 62.4202C16.8634 61.6277 17.0219 60.9331 17.3389 60.3364C17.6559 59.7396 18.0964 59.2735 18.6605 58.9378C19.2246 58.6022 19.8772 58.4343 20.6185 58.4343C21.3784 58.4343 22.0403 58.6045 22.6044 58.9448C23.1685 59.2851 23.6067 59.756 23.9191 60.3573C24.2314 60.9541 24.3876 61.6417 24.3876 62.4202C24.3876 63.2034 24.2291 63.8957 23.9121 64.4971C23.5997 65.0938 23.1615 65.5623 22.5974 65.9026C22.0333 66.2382 21.3737 66.4061 20.6185 66.4061ZM20.6185 64.8257C21.2898 64.8257 21.7886 64.6019 22.1149 64.1544C22.4413 63.7069 22.6044 63.1288 22.6044 62.4202C22.6044 61.6883 22.4389 61.1056 22.1079 60.672C21.7769 60.2338 21.2805 60.0147 20.6185 60.0147C20.1663 60.0147 19.7933 60.1173 19.4996 60.3224C19.2106 60.5228 18.9962 60.8049 18.8563 61.1685C18.7164 61.5275 18.6465 61.9447 18.6465 62.4202C18.6465 63.1521 18.812 63.7372 19.143 64.1754C19.4787 64.6089 19.9705 64.8257 20.6185 64.8257ZM31.1519 66.1963V62.5601C31.1519 62.3223 31.1355 62.0589 31.1029 61.7699C31.0703 61.4808 30.9934 61.2035 30.8721 60.9377C30.7556 60.6674 30.5784 60.4459 30.3407 60.2734C30.1076 60.1009 29.7906 60.0147 29.3897 60.0147C29.1752 60.0147 28.9631 60.0497 28.7533 60.1196C28.5436 60.1895 28.3524 60.3107 28.1799 60.4832C28.0121 60.651 27.8769 60.8841 27.7744 61.1825C27.6718 61.4762 27.6205 61.8538 27.6205 62.3153L26.6206 61.8888C26.6206 61.2454 26.7441 60.6627 26.9912 60.1406C27.2429 59.6184 27.6112 59.2035 28.096 58.8959C28.5809 58.5835 29.1776 58.4273 29.8862 58.4273C30.4456 58.4273 30.9071 58.5206 31.2707 58.7071C31.6344 58.8935 31.9234 59.1313 32.1378 59.4203C32.3523 59.7093 32.5108 60.017 32.6133 60.3434C32.7159 60.6697 32.7812 60.9797 32.8091 61.2734C32.8418 61.5624 32.8581 61.7978 32.8581 61.9797V66.1963H31.1519ZM25.9143 66.1963V58.6441H27.4177V60.9867H27.6205V66.1963H25.9143ZM39.1093 66.1963C38.6105 66.2895 38.121 66.3292 37.6408 66.3152C37.1653 66.3058 36.7387 66.2196 36.3611 66.0564C35.9835 65.8886 35.6968 65.6252 35.501 65.2663C35.3285 64.9399 35.2376 64.6066 35.2283 64.2663C35.219 63.926 35.2143 63.5414 35.2143 63.1125V56.5463H36.8926V63.0146C36.8926 63.3176 36.8949 63.5833 36.8996 63.8118C36.9089 64.0402 36.9578 64.2267 37.0464 64.3712C37.2142 64.6509 37.4823 64.8071 37.8506 64.8397C38.2189 64.8723 38.6384 64.8537 39.1093 64.7838V66.1963ZM33.8437 59.9657V58.6441H39.1093V59.9657H33.8437ZM45.9568 66.1963V62.5601C45.9568 62.3223 45.9405 62.0589 45.9079 61.7699C45.8752 61.4808 45.7983 61.2035 45.6771 60.9377C45.5606 60.6674 45.3834 60.4459 45.1457 60.2734C44.9126 60.1009 44.5956 60.0147 44.1946 60.0147C43.9802 60.0147 43.7681 60.0497 43.5583 60.1196C43.3485 60.1895 43.1574 60.3107 42.9849 60.4832C42.8171 60.651 42.6819 60.8841 42.5793 61.1825C42.4768 61.4762 42.4255 61.8538 42.4255 62.3153L41.4255 61.8888C41.4255 61.2454 41.5491 60.6627 41.7961 60.1406C42.0479 59.6184 42.4162 59.2035 42.901 58.8959C43.3858 58.5835 43.9825 58.4273 44.6911 58.4273C45.2505 58.4273 45.7121 58.5206 46.0757 58.7071C46.4393 58.8935 46.7283 59.1313 46.9428 59.4203C47.1572 59.7093 47.3157 60.017 47.4183 60.3434C47.5209 60.6697 47.5861 60.9797 47.6141 61.2734C47.6467 61.5624 47.663 61.7978 47.663 61.9797V66.1963H45.9568ZM40.7192 66.1963V56.1267H42.2227V61.4272H42.4255V66.1963H40.7192ZM52.4038 66.4061C51.4714 66.4061 50.7139 66.1963 50.1312 65.7767C49.5484 65.3572 49.1941 64.7674 49.0683 64.0076L50.7885 63.7418C50.8771 64.1148 51.0729 64.4085 51.3759 64.6229C51.6789 64.8374 52.0612 64.9446 52.5227 64.9446C52.9283 64.9446 53.2406 64.8653 53.4597 64.7068C53.6835 64.5437 53.7954 64.3222 53.7954 64.0425C53.7954 63.87 53.7534 63.7325 53.6695 63.6299C53.5902 63.5227 53.4131 63.4202 53.138 63.3223C52.863 63.2244 52.4411 63.1008 51.8724 62.9517C51.2383 62.7838 50.7349 62.6043 50.3619 62.4132C49.989 62.2174 49.7209 61.9867 49.5578 61.7209C49.3946 61.4552 49.313 61.1335 49.313 60.7559C49.313 60.2851 49.4365 59.8748 49.6836 59.5252C49.9307 59.1756 50.2757 58.9075 50.7186 58.721C51.1614 58.5299 51.6836 58.4343 52.2849 58.4343C52.8723 58.4343 53.3921 58.5252 53.8443 58.7071C54.3012 58.8889 54.6695 59.1476 54.9492 59.4832C55.2289 59.8189 55.4014 60.2128 55.4666 60.665L53.7464 60.9727C53.7045 60.651 53.5576 60.397 53.3059 60.2105C53.0588 60.024 52.7278 59.9191 52.3129 59.8958C51.9166 59.8725 51.5973 59.9331 51.3549 60.0776C51.1125 60.2175 50.9913 60.4156 50.9913 60.672C50.9913 60.8165 51.0402 60.9401 51.1381 61.0426C51.236 61.1452 51.4318 61.2478 51.7255 61.3503C52.0239 61.4529 52.4667 61.5787 53.0541 61.7279C53.6555 61.8818 54.1357 62.0589 54.4946 62.2594C54.8583 62.4552 55.1193 62.6906 55.2778 62.9656C55.441 63.2407 55.5226 63.574 55.5226 63.9656C55.5226 64.7255 55.2452 65.3222 54.6904 65.7557C54.1403 66.1893 53.3781 66.4061 52.4038 66.4061ZM3.43604 84.1963L0.49209 74.1267H2.26126L4.26818 81.3992L6.2681 74.1407L8.03727 74.1267L10.0442 81.3992L12.0441 74.1267H13.8133L10.8763 84.1963H9.21205L7.14919 77.0357L5.10031 84.1963H3.43604ZM16.4379 84.4061C15.8924 84.4061 15.4309 84.3035 15.0533 84.0984C14.6757 83.8886 14.389 83.6112 14.1932 83.2663C14.002 82.9213 13.9065 82.5413 13.9065 82.1264C13.9065 81.7628 13.9671 81.4365 14.0883 81.1475C14.2095 80.8538 14.396 80.602 14.6477 80.3922C14.8994 80.1778 15.2258 80.003 15.6267 79.8678C15.9297 79.7699 16.284 79.6813 16.6896 79.6021C17.0998 79.5228 17.5427 79.4505 18.0182 79.3853C18.4984 79.3153 18.9995 79.2408 19.5217 79.1615L18.9203 79.5042C18.9249 78.982 18.8084 78.5974 18.5706 78.3504C18.3329 78.1033 17.932 77.9797 17.3679 77.9797C17.0276 77.9797 16.6989 78.059 16.3819 78.2175C16.0649 78.376 15.8435 78.6487 15.7176 79.0356L14.1792 78.5531C14.3657 77.9145 14.72 77.4017 15.2421 77.0147C15.7689 76.6278 16.4775 76.4343 17.3679 76.4343C18.0392 76.4343 18.6289 76.5439 19.1371 76.763C19.6499 76.9821 20.0298 77.3411 20.2769 77.8399C20.4121 78.1056 20.4936 78.3783 20.5216 78.658C20.5496 78.9331 20.5636 79.2338 20.5636 79.5601V84.1963H19.0881V82.56L19.3329 82.8257C18.9925 83.3711 18.594 83.7721 18.1371 84.0285C17.6849 84.2802 17.1185 84.4061 16.4379 84.4061ZM16.7735 83.0635C17.1558 83.0635 17.4821 82.9959 17.7525 82.8607C18.0229 82.7255 18.2373 82.56 18.3958 82.3642C18.559 82.1684 18.6685 81.9842 18.7245 81.8118C18.8131 81.5973 18.862 81.3526 18.8713 81.0775C18.8853 80.7978 18.8923 80.5717 18.8923 80.3992L19.4098 80.5531C18.9016 80.6323 18.4658 80.7022 18.1021 80.7628C17.7385 80.8235 17.4262 80.8817 17.1651 80.9377C16.904 80.9889 16.6733 81.0472 16.4728 81.1125C16.277 81.1824 16.1115 81.264 15.9763 81.3572C15.8411 81.4505 15.7362 81.5577 15.6617 81.6789C15.5917 81.8001 15.5568 81.9423 15.5568 82.1055C15.5568 82.2919 15.6034 82.4574 15.6966 82.6019C15.7899 82.7418 15.9251 82.8537 16.1022 82.9376C16.284 83.0215 16.5078 83.0635 16.7735 83.0635ZM22.3841 84.1963V76.6441H23.8736V78.4832L23.6917 78.2455C23.785 77.9937 23.9085 77.7653 24.0624 77.5602C24.2209 77.3504 24.4097 77.1779 24.6288 77.0427C24.8152 76.9168 25.0204 76.8189 25.2441 76.749C25.4726 76.6744 25.7057 76.6301 25.9434 76.6161C26.1812 76.5975 26.4119 76.6068 26.6357 76.6441V78.2175C26.4119 78.1522 26.1532 78.1312 25.8595 78.1546C25.5705 78.1779 25.3094 78.2594 25.0763 78.3993C24.8432 78.5252 24.6521 78.686 24.5029 78.8818C24.3584 79.0776 24.2512 79.3014 24.1812 79.5531C24.1113 79.8002 24.0763 80.0682 24.0763 80.3573V84.1963H22.3841ZM27.9701 84.1963V76.6441H29.4596V78.4832L29.2777 78.2455C29.371 77.9937 29.4945 77.7653 29.6484 77.5602C29.8069 77.3504 29.9957 77.1779 30.2148 77.0427C30.4012 76.9168 30.6064 76.8189 30.8301 76.749C31.0586 76.6744 31.2917 76.6301 31.5294 76.6161C31.7672 76.5975 31.9979 76.6068 32.2217 76.6441V78.2175C31.9979 78.1522 31.7392 78.1312 31.4455 78.1546C31.1565 78.1779 30.8954 78.2594 30.6623 78.3993C30.4292 78.5252 30.2381 78.686 30.0889 78.8818C29.9444 79.0776 29.8372 79.3014 29.7672 79.5531C29.6973 79.8002 29.6623 80.0682 29.6623 80.3573V84.1963H27.9701ZM35.4904 84.4061C34.9449 84.4061 34.4834 84.3035 34.1058 84.0984C33.7282 83.8886 33.4415 83.6112 33.2457 83.2663C33.0546 82.9213 32.959 82.5413 32.959 82.1264C32.959 81.7628 33.0196 81.4365 33.1408 81.1475C33.262 80.8538 33.4485 80.602 33.7002 80.3922C33.952 80.1778 34.2783 80.003 34.6792 79.8678C34.9822 79.7699 35.3365 79.6813 35.7421 79.6021C36.1523 79.5228 36.5952 79.4505 37.0707 79.3853C37.5509 79.3153 38.052 79.2408 38.5742 79.1615L37.9728 79.5042C37.9775 78.982 37.8609 78.5974 37.6232 78.3504C37.3854 78.1033 36.9845 77.9797 36.4204 77.9797C36.0801 77.9797 35.7514 78.059 35.4344 78.2175C35.1174 78.376 34.896 78.6487 34.7701 79.0356L33.2317 78.5531C33.4182 77.9145 33.7725 77.4017 34.2946 77.0147C34.8214 76.6278 35.53 76.4343 36.4204 76.4343C37.0917 76.4343 37.6814 76.5439 38.1896 76.763C38.7024 76.9821 39.0823 77.3411 39.3294 77.8399C39.4646 78.1056 39.5462 78.3783 39.5741 78.658C39.6021 78.9331 39.6161 79.2338 39.6161 79.5601V84.1963H38.1406V82.56L38.3854 82.8257C38.0451 83.3711 37.6465 83.7721 37.1896 84.0285C36.7374 84.2802 36.171 84.4061 35.4904 84.4061ZM35.826 83.0635C36.2083 83.0635 36.5346 82.9959 36.805 82.8607C37.0754 82.7255 37.2898 82.56 37.4483 82.3642C37.6115 82.1684 37.7211 81.9842 37.777 81.8118C37.8656 81.5973 37.9145 81.3526 37.9238 81.0775C37.9378 80.7978 37.9448 80.5717 37.9448 80.3992L38.4623 80.5531C37.9541 80.6323 37.5183 80.7022 37.1546 80.7628C36.791 80.8235 36.4787 80.8817 36.2176 80.9377C35.9565 80.9889 35.7258 81.0472 35.5253 81.1125C35.3295 81.1824 35.164 81.264 35.0288 81.3572C34.8937 81.4505 34.7888 81.5577 34.7142 81.6789C34.6442 81.8001 34.6093 81.9423 34.6093 82.1055C34.6093 82.2919 34.6559 82.4574 34.7491 82.6019C34.8424 82.7418 34.9776 82.8537 35.1547 82.9376C35.3365 83.0215 35.5603 83.0635 35.826 83.0635ZM46.6602 84.1963V80.5601C46.6602 80.3223 46.6439 80.0589 46.6112 79.7699C46.5786 79.4808 46.5017 79.2035 46.3805 78.9377C46.2639 78.6674 46.0868 78.4459 45.849 78.2734C45.6159 78.1009 45.2989 78.0147 44.898 78.0147C44.6836 78.0147 44.4715 78.0497 44.2617 78.1196C44.0519 78.1895 43.8608 78.3107 43.6883 78.4832C43.5204 78.651 43.3853 78.8841 43.2827 79.1825C43.1801 79.4762 43.1289 79.8538 43.1289 80.3153L42.1289 79.8888C42.1289 79.2454 42.2524 78.6627 42.4995 78.1406C42.7512 77.6184 43.1195 77.2035 43.6044 76.8959C44.0892 76.5835 44.6859 76.4273 45.3945 76.4273C45.9539 76.4273 46.4154 76.5206 46.7791 76.7071C47.1427 76.8935 47.4317 77.1313 47.6462 77.4203C47.8606 77.7093 48.0191 78.017 48.1217 78.3434C48.2242 78.6697 48.2895 78.9797 48.3175 79.2734C48.3501 79.5624 48.3664 79.7978 48.3664 79.9797V84.1963H46.6602ZM41.4226 84.1963V76.6441H42.9261V78.9867H43.1289V84.1963H41.4226ZM54.6176 84.1963C54.1188 84.2895 53.6293 84.3292 53.1491 84.3152C52.6736 84.3058 52.2471 84.2196 51.8695 84.0564C51.4919 83.8886 51.2051 83.6252 51.0094 83.2663C50.8369 82.9399 50.746 82.6066 50.7366 82.2663C50.7273 81.926 50.7226 81.5414 50.7226 81.1125V74.5463H52.4009V81.0146C52.4009 81.3176 52.4032 81.5833 52.4079 81.8118C52.4172 82.0402 52.4662 82.2267 52.5547 82.3712C52.7226 82.6509 52.9906 82.8071 53.3589 82.8397C53.7272 82.8723 54.1468 82.8537 54.6176 82.7838V84.1963ZM49.3521 77.9657V76.6441H54.6176V77.9657H49.3521ZM57.0297 87.5528L58.4842 83.5599L58.5121 84.7347L55.2185 76.6441H56.9737L59.3093 82.6299H58.8618L61.1344 76.6441H62.8197L58.61 87.5528H57.0297Z" fill="#004A8F"/>
</svg>
